<?xml version="1.0" encoding="utf-8"?>
<!-- Generator: Adobe Illustrator 27.5.0, SVG Export Plug-In . SVG Version: 6.00 Build 0)  -->
<svg version="1.1" xmlns="http://www.w3.org/2000/svg" xmlns:xlink="http://www.w3.org/1999/xlink" x="0px" y="0px"
	 viewBox="0 0 3710 3710" style="enable-background:new 0 0 3710 3710;" xml:space="preserve">
<g id="Background">
	<g>
		<g>
			<rect style="fill:#FFFFFF;" width="3710" height="3710"/>
		</g>
	</g>
</g>
<g id="Illustration">
	<g>
		<path style="fill:#F4F7FA;" d="M2924.951,2863.078c-73.35,75.607-138.98,120.051-189.23,153.603
			c-490.073,327.226-1050.28,232.912-1223.482,200.675c-279.44-52.01-515.327-88.7-717.995-271.803
			c-460.524-416.065-438.125-1284.008-86.229-1821.66c41.725-63.75,393.089-584.58,954.508-657.969
			c13.731-1.795,23.977-2.817,32.951-3.767c86.85-9.195,625.044-57.728,1063.888,309.936
			c62.818,52.629,163.911,147.558,257.657,292.341C3359.796,1593.826,3360.881,2413.737,2924.951,2863.078z"/>
		<g>
			<g>
				<g>
					<g>
						<linearGradient id="SVGID_1_" gradientUnits="userSpaceOnUse" x1="1238.7083" y1="1853.491" x2="798.2243" y2="1901.5436">
							<stop  offset="0" style="stop-color:#444B8C"/>
							<stop  offset="0.9964" style="stop-color:#26264F"/>
						</linearGradient>
						<path style="fill:url(#SVGID_1_);" d="M1764.668,743.709l268.35,2230.477c4.023,33.443-19.027,63.422-51.315,66.626
							L863.989,3163.521c-68.471,4.259-105.96-30.722-110.185-66.284L472.067,725.867c-4.201-35.363,29.391-67.389,98.152-67.39
							l1127.884,23.755C1730.754,682.779,1760.665,710.442,1764.668,743.709z"/>
						
							<linearGradient id="SVGID_00000121992714425541329640000002266721090387747003_" gradientUnits="userSpaceOnUse" x1="1626.8162" y1="743.1633" x2="537.6268" y2="4451.2217">
							<stop  offset="0" style="stop-color:#444B8C"/>
							<stop  offset="0.9964" style="stop-color:#26264F"/>
						</linearGradient>
						<path style="fill:url(#SVGID_00000121992714425541329640000002266721090387747003_);" d="M1814.973,739.87l269.824,2241.634
							c4.046,33.612-19.083,63.745-51.49,66.972L874.55,3163.843c-36.329,3.616-69.622-22.664-73.871-58.409L517.36,721.81
							c-4.224-35.546,22.459-64.117,59.185-63.498l1171.601,19.768C1780.919,678.632,1810.948,706.437,1814.973,739.87z"/>
						
							<linearGradient id="SVGID_00000155850757323961259430000007478325110762665131_" gradientUnits="userSpaceOnUse" x1="1113.6212" y1="2585.2556" x2="1508.5515" y2="1195.5009">
							<stop  offset="0.494" style="stop-color:#EBEFF2"/>
							<stop  offset="1" style="stop-color:#FFFFFF"/>
						</linearGradient>
						<path style="fill:url(#SVGID_00000155850757323961259430000007478325110762665131_);" d="M1792.986,863.516l250.092,2078.439
							c3.778,31.402-17.881,59.502-48.216,62.451L905.091,3110.341c-33.773,3.283-64.721-21.249-68.677-54.521L574.585,853.905
							c-3.936-33.1,20.836-59.882,54.95-59.518l1100.955,11.724C1761.14,806.437,1789.225,832.268,1792.986,863.516z"/>
						
							<linearGradient id="SVGID_00000065071476716123261320000004597482863256287909_" gradientUnits="userSpaceOnUse" x1="1218.6713" y1="651.8308" x2="-61.4215" y2="4118.7485">
							<stop  offset="0" style="stop-color:#311944"/>
							<stop  offset="1" style="stop-color:#893976"/>
						</linearGradient>
						<path style="fill:url(#SVGID_00000065071476716123261320000004597482863256287909_);" d="M1208.593,738.33
							c1.428,11.933-7.135,21.485-19.141,21.333c-12.019-0.151-22.93-9.968-24.36-21.925c-1.431-11.957,7.165-21.508,19.185-21.332
							C1196.285,716.583,1207.165,726.397,1208.593,738.33z"/>
						<g style="opacity:0.5;">
							<path style="fill:#FFFFFF;" d="M1604.574,2258.696c-223.1-412.48-556.377-535.947-656.719-961.053
								c-54.239-229.787-17.285-449.723,44.956-632.307l-416.265-7.024c-36.726-0.619-63.409,27.952-59.184,63.498l283.319,2383.625
								c4.249,35.745,37.541,62.026,73.872,58.408l910.895-90.689C1792.182,2703.555,1704.023,2442.562,1604.574,2258.696z"/>
						</g>
					</g>
				</g>
				<g>
					
						<linearGradient id="SVGID_00000097490767544487386300000003048485579226861214_" gradientUnits="userSpaceOnUse" x1="1571.1147" y1="1104.5634" x2="1220.3916" y2="1978.6719">
						<stop  offset="0" style="stop-color:#FFC444"/>
						<stop  offset="0.9964" style="stop-color:#F36F56"/>
					</linearGradient>
					<path style="fill:url(#SVGID_00000097490767544487386300000003048485579226861214_);" d="M2305.841,1504.198l-1458.929,43.916
						c-37.065,1.116-70.606-25.775-74.8-60.066l-64.747-529.389c-4.194-34.291,22.66-62.079,59.863-62.067l1464.357,0.475
						c32.199,0.01,61.374,25.767,65.258,57.529l59.972,490.347C2360.701,1476.703,2337.92,1503.232,2305.841,1504.198z"/>
					
						<linearGradient id="SVGID_00000092420233570187994710000016696238948111565489_" gradientUnits="userSpaceOnUse" x1="887.512" y1="2642.8918" x2="2532.3813" y2="2642.8918" gradientTransform="matrix(0.9953 -0.0105 0 1 2.3321 5.0649)">
						<stop  offset="0" style="stop-color:#AA80F9"/>
						<stop  offset="0.9964" style="stop-color:#6165D7"/>
					</linearGradient>
					<path style="opacity:0.3;fill:url(#SVGID_00000092420233570187994710000016696238948111565489_);" d="M2471.884,2861.811
						L1025.095,3004.99c-36.756,3.637-70.047-21.202-74.241-55.493l-64.747-529.389c-4.194-34.291,22.409-64.13,59.304-66.64
						l1452.217-98.788c31.932-2.172,60.891,21.82,64.776,53.582l59.972,490.347
						C2526.261,2830.37,2503.696,2858.663,2471.884,2861.811z"/>
					<g>
						
							<linearGradient id="SVGID_00000179629356404839143980000001272041441868366994_" gradientUnits="userSpaceOnUse" x1="797.7204" y1="1938.3142" x2="2449.2087" y2="1938.3142" gradientTransform="matrix(0.9953 -0.0105 0 1 2.3321 5.0649)">
							<stop  offset="0" style="stop-color:#AA80F9"/>
							<stop  offset="0.9964" style="stop-color:#6165D7"/>
						</linearGradient>
						<path style="opacity:0.3;fill:url(#SVGID_00000179629356404839143980000001272041441868366994_);" d="M2388.863,2183.004
							l-1452.859,93.547c-36.911,2.377-70.327-23.489-74.521-57.78l-64.747-529.389c-4.194-34.291,22.535-63.104,59.583-64.353
							l1458.288-49.156c32.065-1.081,61.132,23.793,65.017,55.555l59.972,490.347
							C2443.481,2153.537,2420.808,2180.947,2388.863,2183.004z"/>
					</g>
				</g>
			</g>
			<g>
				
					<linearGradient id="SVGID_00000109003720979554574580000014885930250050886558_" gradientUnits="userSpaceOnUse" x1="1044.9226" y1="3755.5342" x2="1138.9973" y2="1141.6392" gradientTransform="matrix(1 0 0.1368 0.9896 233.6808 -18.2519)">
					<stop  offset="0" style="stop-color:#AA80F9"/>
					<stop  offset="0.9964" style="stop-color:#6165D7"/>
				</linearGradient>
				<path style="fill:url(#SVGID_00000109003720979554574580000014885930250050886558_);" d="M1714.968,1110.276l26.562,192.162
					c2.87,20.761-7.369,39.979-27.401,55.681c-4.801,3.758-10.078,7.33-15.953,10.66c-32.033,18.232-79.099,29.579-132.997,29.579
					c-53.898,0-104.146-11.348-141.219-29.579c-35.074-17.227-58.37-40.593-61.928-66.34l-26.562-192.162H1714.968z"/>
				
					<linearGradient id="SVGID_00000174559724212471225190000016657655567628094375_" gradientUnits="userSpaceOnUse" x1="1113.7882" y1="1430.953" x2="1120.6571" y2="1240.0997" gradientTransform="matrix(1 0 0.1368 0.9896 233.6808 -18.2519)">
					<stop  offset="0" style="stop-color:#AA80F9"/>
					<stop  offset="0.9964" style="stop-color:#6165D7"/>
				</linearGradient>
				<path style="opacity:0.3;fill:url(#SVGID_00000174559724212471225190000016657655567628094375_);" d="M1714.281,1358.119
					c-4.801,3.758-10.154,7.33-16.029,10.66c-32.033,18.232-79.137,29.579-133.035,29.579c-53.898,0-104.165-11.348-141.238-29.579
					c-35.074-17.227-58.389-40.593-61.947-66.34l-13.784-99.715c28.717,11.646,69.195,34.454,81.283,71.308
					c18.913,57.671,101.712,77.205,179.546,64.182C1643.363,1332.464,1681.339,1341.487,1714.281,1358.119z"/>
				
					<linearGradient id="SVGID_00000033360288134391859060000012582935882121725360_" gradientUnits="userSpaceOnUse" x1="1168.9998" y1="951.5147" x2="1129.6793" y2="1244.8563" gradientTransform="matrix(1 0 0.1368 0.9896 233.6808 -18.2519)">
					<stop  offset="0" style="stop-color:#AA80F9"/>
					<stop  offset="0.9964" style="stop-color:#6165D7"/>
				</linearGradient>
				<polygon style="fill:url(#SVGID_00000033360288134391859060000012582935882121725360_);" points="1817.126,1128.159 
					1513.055,988.961 1247.467,1128.159 1236.741,1128.159 1237.368,1132.69 1237.368,1132.69 1553.75,1277.469 1830.108,1132.69 
					1830.108,1132.69 1829.482,1128.159 				"/>
				
					<linearGradient id="SVGID_00000145738783366818324930000004103825000179289257_" gradientUnits="userSpaceOnUse" x1="1162.9045" y1="868.0981" x2="1111.5204" y2="1521.0542" gradientTransform="matrix(1 0 0.1368 0.9896 233.6808 -18.2519)">
					<stop  offset="0" style="stop-color:#AA80F9"/>
					<stop  offset="0.9964" style="stop-color:#6165D7"/>
				</linearGradient>
				<polygon style="fill:url(#SVGID_00000145738783366818324930000004103825000179289257_);" points="1512.138,982.329 
					1235.902,1127.109 1552.163,1271.888 1828.4,1127.109 				"/>
				<g>
					
						<linearGradient id="SVGID_00000137830842993237930050000014607750521228773520_" gradientUnits="userSpaceOnUse" x1="1458.2168" y1="958.1008" x2="1112.7694" y2="1558.9419" gradientTransform="matrix(1 0 0.1368 0.9896 233.6808 -18.2519)">
						<stop  offset="0" style="stop-color:#FF9085"/>
						<stop  offset="1" style="stop-color:#FB6FBB"/>
					</linearGradient>
					<path style="fill:url(#SVGID_00000137830842993237930050000014607750521228773520_);" d="M1854.411,1328.114
						c-2.173,0-4.759-1.743-5.056-3.893l-26.233-189.779c-0.594-4.293-3.495-8.071-7.833-8.071h-283.24
						c-2.173,0-4.131-1.427-4.428-3.577c-0.297-2.15,1.267-3.577,3.439-3.577h283.24c8.677,0,16.67,6.638,17.857,15.224
						l26.233,189.779C1858.688,1326.371,1856.583,1328.114,1854.411,1328.114z"/>
				</g>
				
					<linearGradient id="SVGID_00000132088789793957168460000002720764217018638008_" gradientUnits="userSpaceOnUse" x1="1420.3972" y1="1497.988" x2="1443.0067" y2="1286.639" gradientTransform="matrix(1 0 0.1368 0.9896 233.6808 -18.2519)">
					<stop  offset="0" style="stop-color:#FF9085"/>
					<stop  offset="1" style="stop-color:#FB6FBB"/>
				</linearGradient>
				<path style="fill:url(#SVGID_00000132088789793957168460000002720764217018638008_);" d="M1859.85,1293.625l-4.28-5.893
					c-1.589-2.235-4.235-3.6-6.825-3.559c-2.59,0.041-4.779,1.483-5.671,3.758l-2.259,6.133c-0.581,1.483-0.619,3.131-0.387,4.805
					l7.137,51.628c0.153,1.109,5.145,2.007,11.12,2.007c5.975,0,10.718-0.899,10.565-2.007l-7.156-51.774
					C1861.847,1296.937,1860.956,1295.18,1859.85,1293.625z"/>
			</g>
			<g>
				<g>
					
						<linearGradient id="SVGID_00000139287286663282578490000016856816203327891902_" gradientUnits="userSpaceOnUse" x1="1148.9192" y1="1770.5846" x2="805.3173" y2="2545.196" gradientTransform="matrix(1 0 0.1307 0.9699 -73.5585 17.7302)">
						<stop  offset="0.0036" style="stop-color:#E38DDD"/>
						<stop  offset="1" style="stop-color:#9571F6"/>
					</linearGradient>
					<path style="fill:url(#SVGID_00000139287286663282578490000016856816203327891902_);" d="M1223.99,1850.225l-16.635-123.48
						h-82.582l16.635,123.48c1.62,12.026-4.697,22.777-15.817,26.847c-72.392,26.497-117.35,99.206-108.322,166.222
						c11.296,83.851,102.821,127.017,208.55,127.017c105.729,0,185.624-43.166,174.328-127.017
						c-9.028-67.016-73.577-139.725-153.108-166.222C1234.823,1873.002,1225.609,1862.251,1223.99,1850.225z"/>
					
						<linearGradient id="SVGID_00000011711065116076448010000003214416867434919054_" gradientUnits="userSpaceOnUse" x1="831.588" y1="2118.6587" x2="1187.0311" y2="2118.6587" gradientTransform="matrix(1 0 0.1307 0.9699 -73.5585 17.7302)">
						<stop  offset="0" style="stop-color:#AA80F9"/>
						<stop  offset="0.9964" style="stop-color:#6165D7"/>
					</linearGradient>
					<path style="fill:url(#SVGID_00000011711065116076448010000003214416867434919054_);" d="M1042.222,1985.239
						c-9.986,16.319-14.373,34.769-11.741,54.308c8.962,66.522,95.795,120.449,193.948,120.449s170.457-53.927,161.495-120.449
						c-2.632-19.54-11.99-37.99-26.373-54.308H1042.222z"/>
					
						<linearGradient id="SVGID_00000146498071901133926700000005161232021989697948_" gradientUnits="userSpaceOnUse" x1="1003.5321" y1="2036.3038" x2="1086.7396" y2="1924.9435" gradientTransform="matrix(1 0 0.1307 0.9699 -73.5585 17.7302)">
						<stop  offset="0" style="stop-color:#AA80F9"/>
						<stop  offset="0.9964" style="stop-color:#6165D7"/>
					</linearGradient>
					<path style="fill:url(#SVGID_00000146498071901133926700000005161232021989697948_);" d="M1359.482,1985.239
						c0.993,7.373-69.207,13.349-156.796,13.349c-87.589,0-159.4-5.977-160.393-13.349c-0.993-7.372,69.207-13.349,156.796-13.349
						C1286.678,1971.889,1358.488,1977.866,1359.482,1985.239z"/>
					<g style="opacity:0.3;">
						<path style="fill:#FFFFFF;" d="M1234.959,2115.093c-21.39-0.07-65.55-0.214-103.806-32.16
							c-23.153-19.334-54.056-58.594-46.045-91.019c12.151-49.187,104.186-43.538,105.003-84.344
							c0.371-18.556-18.617-21.85-27.295-54.005c-9.568-35.453,8.634-49.531,3.979-81.917c-1.671-11.63-6.468-26.831-19.494-44.902
							h-22.528l16.635,123.48c1.62,12.026-4.697,22.777-15.817,26.847c-72.392,26.497-117.35,99.206-108.322,166.222
							c11.296,83.851,102.821,127.017,208.55,127.017c105.729,0,185.624-43.166,174.328-127.017
							c-0.645-4.788-1.583-9.605-2.78-14.432C1372.032,2061.017,1317.36,2115.361,1234.959,2115.093z"/>
					</g>
					
						<linearGradient id="SVGID_00000061446259190406241070000012502474879031300484_" gradientUnits="userSpaceOnUse" x1="1022.4796" y1="1734.8923" x2="980.036" y2="1830.5767" gradientTransform="matrix(1 0 0.1307 0.9699 -73.5585 17.7302)">
						<stop  offset="0.0036" style="stop-color:#E38DDD"/>
						<stop  offset="1" style="stop-color:#9571F6"/>
					</linearGradient>
					<path style="fill:url(#SVGID_00000061446259190406241070000012502474879031300484_);" d="M1205.957,1741.914h-75.7
						c-7.256,0-13.907-5.705-14.855-12.743l0,0c-0.948-7.038,4.165-12.743,11.421-12.743h75.7c7.256,0,13.906,5.705,14.855,12.743
						l0,0C1218.327,1736.209,1213.214,1741.914,1205.957,1741.914z"/>
				</g>
				<g>
					
						<linearGradient id="SVGID_00000011747960619858521750000009842390474443129001_" gradientUnits="userSpaceOnUse" x1="363.5352" y1="1817.6182" x2="520.6909" y2="1854.7416" gradientTransform="matrix(-1 0 0.1307 0.9699 1233.5449 17.7303)">
						<stop  offset="0" style="stop-color:#311944"/>
						<stop  offset="1" style="stop-color:#893976"/>
					</linearGradient>
					<path style="fill:url(#SVGID_00000011747960619858521750000009842390474443129001_);" d="M995.864,1724.194
						c-51.549,1.541-90.888,32.189-94.132,70.987c-0.004,0.051-0.008,0.102-0.012,0.153c-0.172,2.123-0.236,4.271-0.188,6.44
						c0.003,0.143,0.005,0.286,0.009,0.43c0.029,1.013,0.083,2.031,0.162,3.054c0.014,0.185,0.032,0.371,0.048,0.557
						c0.089,1.045,0.196,2.092,0.338,3.146c6.074,45.085,58.119,79.252,115.481,76.353c1.526-0.078,3.038-0.185,4.54-0.313
						c0.147-0.013,0.295-0.023,0.442-0.036c1.421-0.126,2.829-0.277,4.227-0.447c0.217-0.026,0.436-0.051,0.653-0.079
						c1.352-0.171,2.692-0.364,4.022-0.576c0.251-0.04,0.501-0.08,0.751-0.121c1.304-0.216,2.596-0.45,3.877-0.703
						c0.26-0.052,0.518-0.106,0.777-0.159c1.273-0.261,2.537-0.537,3.787-0.835c0.242-0.058,0.481-0.119,0.723-0.179
						c1.24-0.304,2.471-0.621,3.687-0.96c0.218-0.061,0.433-0.126,0.651-0.188c1.094-0.313,2.176-0.64,3.249-0.981
						c0.272-0.087,0.547-0.169,0.817-0.257c1.087-0.355,2.159-0.728,3.224-1.112c0.23-0.082,0.467-0.156,0.696-0.24
						c-0.003-0.003-0.006-0.005-0.01-0.008c36.581-13.431,59.5-43.659,54.946-77.464
						C1102.71,1756.743,1052.555,1722.5,995.864,1724.194z"/>
					
						<linearGradient id="SVGID_00000070081821867508687180000008732614940827361715_" gradientUnits="userSpaceOnUse" x1="-752.8373" y1="1774.9504" x2="-618.1085" y2="2024.8325" gradientTransform="matrix(1 0 0.1307 0.9699 1491.8658 17.7302)">
						<stop  offset="0" style="stop-color:#FFC444"/>
						<stop  offset="0.9964" style="stop-color:#F36F56"/>
					</linearGradient>
					<path style="fill:url(#SVGID_00000070081821867508687180000008732614940827361715_);" d="M1119.584,1800.656
						c5.916,43.913-34.523,81.799-91.057,84.656c-57.362,2.899-109.407-31.267-115.481-76.353
						c-6.074-45.085,36.255-83.047,93.776-84.766C1063.513,1722.5,1113.668,1756.743,1119.584,1800.656z"/>
					<g style="opacity:0.3;">
						
							<linearGradient id="SVGID_00000059292206952966357470000000399932803769755319_" gradientUnits="userSpaceOnUse" x1="-792.3282" y1="1791.4606" x2="-660.3006" y2="2056.4082" gradientTransform="matrix(1 0 0.1307 0.9699 1491.8658 17.7302)">
							<stop  offset="0" style="stop-color:#FFC444"/>
							<stop  offset="0.9964" style="stop-color:#F36F56"/>
						</linearGradient>
						<path style="fill:url(#SVGID_00000059292206952966357470000000399932803769755319_);" d="M1050.726,1863.597
							c-15.583-23.159-6.046-45.889-24.88-60.543c-19.217-14.953-39.605,0.476-65.522-11.366
							c-10.063-4.598-21.816-13.702-32.256-32.989c-11.746,14.183-17.53,31.639-15.021,50.262
							c6.074,45.085,58.119,79.252,115.481,76.353c13.024-0.658,25.187-3.173,36.122-7.184
							C1058.353,1873.364,1053.931,1868.361,1050.726,1863.597z"/>
					</g>
					<g>
						<path style="fill:#FFFFFF;" d="M1012.516,1805.439c0.603,4.553,4.827,8.171,9.419,8.08c4.579-0.091,7.792-3.835,7.189-8.363
							c-0.602-4.526-4.792-8.141-9.372-8.076C1015.158,1797.146,1011.912,1800.887,1012.516,1805.439z"/>
						<g>
							<path style="fill:#FFFFFF;" d="M996.614,1824.43c-22.641-26.156-29.573-55.181-15.694-65.716
								c3.194-2.423,7.235-3.649,12.008-3.649c15.227,0,35.507,12.399,51.685,31.463c21.712,25.584,28.432,53.744,15.385,64.454
								c-3.042,2.496-6.923,3.844-11.542,4.002C1033.523,1855.495,1013.167,1843.553,996.614,1824.43z M984.553,1762.953
								c-11.221,8.548-3.859,35.407,15.99,58.375c15.149,17.528,34.129,28.944,47.226,28.519c3.539-0.115,6.475-1.108,8.726-2.949
								c10.619-8.687,3.478-34.84-15.677-57.375c-14.869-17.493-33.836-29.304-47.207-29.281
								C989.957,1760.249,986.907,1761.16,984.553,1762.953z"/>
						</g>
						<g>
							<path style="fill:#FFFFFF;" d="M993.358,1853.179c-16.631-10.074-17.336-39.293-1.669-66.082
								c11.42-19.526,28.476-32.033,43.426-32.033c4.624,0,8.832,1.202,12.515,3.568c15.807,10.161,16.66,38.339,1.885,64.563
								c-11.044,19.601-27.988,32.71-43.198,33.23l0,0C1001.548,1856.589,997.188,1855.498,993.358,1853.179z M996.413,1790.046
								c-13.719,23.526-14,50.592-0.546,58.763c2.825,1.716,6.111,2.524,9.762,2.405c13.357-0.434,29.147-12.9,39.305-30.878
								c13.053-23.096,13.166-49.3,0.308-57.544c-2.724-1.746-5.901-2.63-9.444-2.624
								C1022.685,1760.192,1006.853,1772.139,996.413,1790.046z"/>
						</g>
						<g>
							<path style="fill:#FFFFFF;" d="M961.946,1806.426c-0.789-5.387,1.037-10.066,5.101-14.802
								c8.851-10.315,27.778-16.981,49.195-17.419l1.547-0.063c31.179-0.202,57.085,12.588,59.576,29.232
								c1.266,8.457-3.582,16.331-13.673,22.509c-9.685,5.93-23.306,9.22-38.336,9.843l-1.642-0.624c0,0-0.002,0-0.004,0
								C991.915,1836.56,964.482,1823.754,961.946,1806.426z M1017.005,1779.394c-20.068,0.445-37.613,6.502-45.611,15.853
								c-3.211,3.754-4.545,7.695-3.956,11.705c2.074,14.157,27.319,25.072,55.771,24.335l1.478-0.049
								c14.217-0.567,26.995-3.932,36.038-9.448c8.5-5.184,12.623-11.6,11.653-18.09c-2.04-13.647-26.003-24.559-53.893-24.329
								L1017.005,1779.394z"/>
						</g>
					</g>
				</g>
			</g>
			<g>
				
					<linearGradient id="SVGID_00000102536378605425113580000006980653228546848432_" gradientUnits="userSpaceOnUse" x1="1051.178" y1="2593.5569" x2="974.4335" y2="2729.0588" gradientTransform="matrix(1 0 0.1276 0.9753 -106.1361 20.5098)">
					<stop  offset="0" style="stop-color:#AA80F9"/>
					<stop  offset="0.9964" style="stop-color:#6165D7"/>
				</linearGradient>
				<path style="fill:url(#SVGID_00000102536378605425113580000006980653228546848432_);" d="M1375.744,2462.182l48.345,378.721
					c2.38,18.646-10.837,35.653-29.872,37.631l-273.376,28.41c-20.549,2.136-39.36-12.264-41.836-31.769l-50.292-396.166
					c-2.324-18.307,10.676-33.989,29.427-36.564c1.198-0.165,2.428-0.254,3.669-0.308l275.181-12.108
					C1356.152,2429.186,1373.367,2443.561,1375.744,2462.182z"/>
				
					<linearGradient id="SVGID_00000031185676410930758690000008361983221874302896_" gradientUnits="userSpaceOnUse" x1="1263.0548" y1="2630.7717" x2="1154.6851" y2="2822.7795">
					<stop  offset="0.0036" style="stop-color:#E38DDD"/>
					<stop  offset="1" style="stop-color:#9571F6"/>
				</linearGradient>
				<path style="fill:url(#SVGID_00000031185676410930758690000008361983221874302896_);" d="M1395.767,2461.173l48.307,378.163
					c2.378,18.618-10.002,35.515-28.977,37.486l-272.468,28.307c-20.481,2.127-40.079-12.164-42.553-31.639l-50.248-395.543
					c-2.322-18.278,11.048-33.953,29.738-36.522c1.195-0.165,2.841-0.272,4.079-0.326l274.282-12.07
					C1377.028,2428.189,1393.392,2442.58,1395.767,2461.173z"/>
				<g>
					
						<linearGradient id="SVGID_00000138561696963503490420000015202829892173748615_" gradientUnits="userSpaceOnUse" x1="834.0795" y1="2545.1016" x2="1182.5894" y2="2545.1016" gradientTransform="matrix(1 0 0.1276 0.9753 -106.1361 20.5098)">
						<stop  offset="0.0036" style="stop-color:#E38DDD"/>
						<stop  offset="1" style="stop-color:#9571F6"/>
					</linearGradient>
					<path style="fill:url(#SVGID_00000138561696963503490420000015202829892173748615_);" d="M1395.699,2460.638l12.105,94.76
						l-345.456,21.103l-12.591-99.113c-2.266-17.842,10.478-32.926,28.454-36.031c1.609-0.284,3.735-0.182,5.434-0.257
						l274.282-12.07C1377.028,2428.189,1393.324,2442.044,1395.699,2460.638z"/>
					
						<linearGradient id="SVGID_00000121988565875348544420000012912703683015877280_" gradientUnits="userSpaceOnUse" x1="834.0386" y1="2600.0803" x2="1182.3865" y2="2600.0803" gradientTransform="matrix(1 0 0.1276 0.9753 -106.1361 20.5098)">
						<stop  offset="0.0036" style="stop-color:#E38DDD"/>
						<stop  offset="1" style="stop-color:#9571F6"/>
					</linearGradient>
					<path style="fill:url(#SVGID_00000121988565875348544420000012912703683015877280_);" d="M1404.081,2526.255l5.034,39.407
						c-33.156,11.617-95.129,21.896-166.377,26.496c-31.203,2.014-61.365,2.76-88.635,2.35c-36.12-0.543-66.721-3.123-90.392-7.272
						l-5.236-41.218c8.389-2.4,16.105-4.629,25.337-6.793c20.115-4.718,44.611-8.94,71.653-12.344
						c24.263-3.06,50.828-5.461,78.474-6.984c35.764-1.97,69.365-2.249,98.576-1.095c2.277,0.085,4.553,0.187,6.775,0.291
						c7.022,0.336,13.787,0.756,20.239,1.262c2.284,0.176,4.536,0.364,6.744,0.565c5.077,0.457,9.462,0.989,14.109,1.549
						C1389.301,2523.541,1397.259,2524.805,1404.081,2526.255z"/>
				</g>
				<path style="fill:#FFFFFF;" d="M1388.033,2535.896c0.719,5.63-3.362,10.472-9.123,10.816l-283.714,16.938
					c-6.211,0.371-11.857-4.077-12.602-9.935l-8.43-66.333c-0.744-5.855,3.701-10.847,9.92-11.149l284.067-13.773
					c5.768-0.279,11.021,4.056,11.739,9.684L1388.033,2535.896z"/>
				
					<linearGradient id="SVGID_00000022548748785406125890000018197540697743092144_" gradientUnits="userSpaceOnUse" x1="1076.8241" y1="2511.77" x2="1381.286" y2="2511.77">
					<stop  offset="0" style="stop-color:#AA80F9"/>
					<stop  offset="0.9964" style="stop-color:#6165D7"/>
				</linearGradient>
				<path style="fill:url(#SVGID_00000022548748785406125890000018197540697743092144_);" d="M1381.234,2534.858
					c0.454,3.558-2.128,6.617-5.77,6.832l-282.237,16.655c-3.923,0.231-7.488-2.579-7.958-6.277l-8.393-66.041
					c-0.47-3.697,2.336-6.85,6.264-7.042l282.557-13.796c3.647-0.178,6.968,2.562,7.423,6.119L1381.234,2534.858z"/>
				<g>
					<g>
						<g style="opacity:0.3;">
							
								<linearGradient id="SVGID_00000098913005371613502420000000832653396520694690_" gradientUnits="userSpaceOnUse" x1="1115.7682" y1="2515.1077" x2="1111.0558" y2="2622.5481" gradientTransform="matrix(1 0 0.1276 0.9753 -106.1361 20.5098)">
								<stop  offset="0" style="stop-color:#311944"/>
								<stop  offset="1" style="stop-color:#A03976"/>
							</linearGradient>
							<path style="fill:url(#SVGID_00000098913005371613502420000000832653396520694690_);" d="M1336.345,2498.489
								c0.224,1.758-1.099,2.959-2.909,3.049l-0.151,0.008c-1.811,0.09-3.419-0.941-3.644-2.701l-1.666-13.062
								c-0.224-1.759,1.077-3.139,2.887-3.232l0.151-0.008c1.809-0.094,3.442,1.139,3.666,2.896L1336.345,2498.489z"/>
							
								<linearGradient id="SVGID_00000020375751656715218410000007459048011774066816_" gradientUnits="userSpaceOnUse" x1="1142.6746" y1="2513.6614" x2="1137.9474" y2="2621.4397" gradientTransform="matrix(1 0 0.1276 0.9753 -106.1361 20.5098)">
								<stop  offset="0" style="stop-color:#311944"/>
								<stop  offset="1" style="stop-color:#A03976"/>
							</linearGradient>
							<path style="fill:url(#SVGID_00000020375751656715218410000007459048011774066816_);" d="M1363.048,2497.126
								c0.223,1.751-1.083,3.001-2.88,3.09l-0.15,0.008c-1.798,0.089-3.403-0.992-3.626-2.744l-1.666-13.054
								c-0.224-1.753,1.063-3.165,2.861-3.258l0.15-0.008c1.797-0.093,3.423,1.173,3.646,2.924L1363.048,2497.126z"/>
						</g>
						<g>
							
								<linearGradient id="SVGID_00000072238269188699435230000015031801497775109548_" gradientUnits="userSpaceOnUse" x1="1115.73" y1="2543.6704" x2="1110.6819" y2="2658.7642" gradientTransform="matrix(1 0 0.1276 0.9753 -106.1361 20.5098)">
								<stop  offset="0" style="stop-color:#311944"/>
								<stop  offset="1" style="stop-color:#A03976"/>
							</linearGradient>
							<path style="opacity:0.3;fill:url(#SVGID_00000072238269188699435230000015031801497775109548_);" d="M1340.08,2527.742
								c0.224,1.758-1.018,3.578-2.829,3.661l-0.151,0.007c-1.812,0.083-3.496-1.529-3.72-3.288l-1.717-13.447
								c-0.224-1.759,1.025-3.542,2.836-3.629l0.151-0.007c1.81-0.088,3.49,1.51,3.714,3.267L1340.08,2527.742z"/>
							
								<linearGradient id="SVGID_00000037688041623695911630000013044682763207448743_" gradientUnits="userSpaceOnUse" x1="1142.71" y1="2540.2639" x2="1137.3098" y2="2663.3848" gradientTransform="matrix(1 0 0.1276 0.9753 -106.1361 20.5098)">
								<stop  offset="0" style="stop-color:#311944"/>
								<stop  offset="1" style="stop-color:#A03976"/>
							</linearGradient>
							<path style="opacity:0.3;fill:url(#SVGID_00000037688041623695911630000013044682763207448743_);" d="M1366.784,2526.377
								c0.224,1.752-1.167,2.357-2.787,3.802l-0.15,0.007c-1.799,0.083-3.492-1.678-3.716-3.431l-1.799-14.073
								c-0.224-1.753,0.929-4.201,2.727-4.288l0.15-0.007c1.797-0.087,3.554,2.178,3.778,3.929L1366.784,2526.377z"/>
						</g>
					</g>
					<g>
						
							<linearGradient id="SVGID_00000150086089020523318850000009920801077737641864_" gradientUnits="userSpaceOnUse" x1="6336.9199" y1="-3386.3477" x2="6332.3745" y2="-3282.707" gradientTransform="matrix(0.1276 0.9753 -1 0 -2828.5232 -3674.938)">
							<stop  offset="0" style="stop-color:#311944"/>
							<stop  offset="1" style="stop-color:#A03976"/>
						</linearGradient>
						<path style="opacity:0.3;fill:url(#SVGID_00000150086089020523318850000009920801077737641864_);" d="M1357.341,2504.204
							c0.229,1.753-1.096,3.266-2.895,3.363l-12.834,0.713c-1.807,0.098-2.776-1.27-3.005-3.027l-0.019-0.147
							c-0.229-1.758,0.364-3.232,2.171-3.329l13.207-0.721c1.799-0.096,3.128,1.249,3.356,3.001L1357.341,2504.204z"/>
						<g>
							
								<linearGradient id="SVGID_00000168100494330999982810000001254021038500299660_" gradientUnits="userSpaceOnUse" x1="6308.916" y1="-3386.3589" x2="6304.3711" y2="-3282.7314" gradientTransform="matrix(0.1276 0.9753 -1 0 -2828.5232 -3674.938)">
								<stop  offset="0" style="stop-color:#311944"/>
								<stop  offset="1" style="stop-color:#A03976"/>
							</linearGradient>
							<path style="opacity:0.3;fill:url(#SVGID_00000168100494330999982810000001254021038500299660_);" d="M1353.784,2476.932
								c0.229,1.752-1.059,3.258-2.859,3.35l-12.856,0.661c-1.807,0.091-2.795-1.283-3.023-3.041l-0.019-0.147
								c-0.229-1.758,0.401-3.226,2.208-3.316l13.193-0.669c1.8-0.09,3.109,1.263,3.338,3.016L1353.784,2476.932z"/>
							
								<linearGradient id="SVGID_00000027565756284478276420000008561962016668651404_" gradientUnits="userSpaceOnUse" x1="6366.3286" y1="-3387.0205" x2="6361.4336" y2="-3275.4155" gradientTransform="matrix(0.1276 0.9753 -1 0 -2828.5232 -3674.938)">
								<stop  offset="0" style="stop-color:#311944"/>
								<stop  offset="1" style="stop-color:#A03976"/>
							</linearGradient>
							<path style="opacity:0.3;fill:url(#SVGID_00000027565756284478276420000008561962016668651404_);" d="M1361.068,2532.779
								c0.229,1.753-1.135,3.273-2.933,3.378l-13.534,0.783c-1.806,0.105-3.478-1.237-3.707-2.995l-0.019-0.147
								c-0.229-1.758,1.048-3.257,2.853-3.361l13.582-0.783c1.798-0.103,3.511,1.226,3.739,2.978L1361.068,2532.779z"/>
						</g>
					</g>
				</g>
				<path style="opacity:0.3;fill:#FFFFFF;" d="M1299.289,2864.175c-0.326,6.281-1.38,12.638-3.417,18.653
					c-0.724,2.136-1.568,4.366-2.515,6.643l-150.727,15.659c-20.481,2.127-40.079-12.164-42.553-31.639l-50.319-396.103
					c-2.266-17.842,10.44-33.227,28.415-36.331c0.461,0.108,1.139,0.219,1.607,0.338c20.039,5.082,42.527,15.174,57.777,35.134
					c9.544,12.48,16.371,28.848,18.068,50.343c0.444,5.559,0.571,11.465,0.291,17.741c-0.163,3.647-0.316,7.372-0.472,11.17
					c-0.195,4.743-0.364,9.592-0.499,14.523c-0.211,7.893-0.3,15.987-0.16,24.159c0.139,7.833,0.494,15.743,1.173,23.622
					c0.135,1.521,0.277,3.048,0.435,4.567c0.503,4.926,1.145,9.826,1.95,14.681c0.547,3.325,1.172,6.623,1.876,9.892
					c3.975,18.4,10.584,35.863,21.286,50.938c8.099,11.403,19.205,20.013,30.741,27.958c3.046,2.094,6.12,4.146,9.179,6.191
					c10.5,7.016,20.598,14.331,29.821,22.588c0.227,0.203,0.456,0.41,0.678,0.613c4.474,4.05,8.737,8.33,12.737,12.916
					c4.446,5.096,8.321,10.504,11.715,16.161c1.309,2.173,2.543,4.391,3.711,6.636c2.015,3.855,3.832,7.821,5.493,11.872
					c0.746,1.817,1.485,3.662,2.204,5.531c0.032,0.069,0.064,0.143,0.085,0.219c2.884,7.412,5.547,15.167,7.594,23.061
					C1298.222,2842.577,1299.837,2853.502,1299.289,2864.175z"/>
				<g>
					<g>
						<g>
							
								<linearGradient id="SVGID_00000143612796253542909440000005060250030607285380_" gradientUnits="userSpaceOnUse" x1="1187.5995" y1="2514.8728" x2="639.0911" y2="2820.0032" gradientTransform="matrix(1 0 0.1276 0.9753 -106.1361 20.5098)">
								<stop  offset="0" style="stop-color:#444B8C"/>
								<stop  offset="0.9964" style="stop-color:#3E4177"/>
							</linearGradient>
							<path style="fill:url(#SVGID_00000143612796253542909440000005060250030607285380_);" d="M1159.551,2641.511
								c0.499,3.917-2.44,7.33-6.566,7.624l-50.162,3.568c-4.185,0.298-7.987-2.663-8.489-6.613l-2.292-18.034
								c-0.502-3.95,2.488-7.379,6.674-7.659l50.185-3.361c4.128-0.277,7.876,2.675,8.374,6.592L1159.551,2641.511z"/>
							
								<linearGradient id="SVGID_00000033327774249189635060000015654894830090979247_" gradientUnits="userSpaceOnUse" x1="1201.4396" y1="2547.7771" x2="663.5231" y2="2847.0154" gradientTransform="matrix(1 0 0.1276 0.9753 -106.1361 20.5098)">
								<stop  offset="0" style="stop-color:#444B8C"/>
								<stop  offset="0.9964" style="stop-color:#3E4177"/>
							</linearGradient>
							<path style="fill:url(#SVGID_00000033327774249189635060000015654894830090979247_);" d="M1241.629,2635.749
								c0.494,3.875-2.378,7.25-6.418,7.538l-49.104,3.493c-4.096,0.292-7.823-2.64-8.32-6.548l-2.271-17.843
								c-0.497-3.907,2.425-7.298,6.523-7.572l49.126-3.29c4.042-0.271,7.716,2.652,8.209,6.527L1241.629,2635.749z"/>
							
								<linearGradient id="SVGID_00000060006227165654721530000006036049645547681416_" gradientUnits="userSpaceOnUse" x1="1213.5045" y1="2579.4834" x2="685.5144" y2="2873.1995" gradientTransform="matrix(1 0 0.1276 0.9753 -106.1361 20.5098)">
								<stop  offset="0" style="stop-color:#444B8C"/>
								<stop  offset="0.9964" style="stop-color:#3E4177"/>
							</linearGradient>
							<path style="fill:url(#SVGID_00000060006227165654721530000006036049645547681416_);" d="M1319.294,2630.295
								c0.49,3.837-2.32,7.175-6.279,7.456l-48.113,3.423c-4.013,0.285-7.669-2.619-8.162-6.487l-2.25-17.661
								c-0.493-3.868,2.365-7.221,6.38-7.49l48.136-3.224c3.961-0.265,7.565,2.63,8.054,6.466L1319.294,2630.295z"/>
							
								<linearGradient id="SVGID_00000148631994578036887320000009909328167552069546_" gradientUnits="userSpaceOnUse" x1="1229.0236" y1="2609.8042" x2="711.0016" y2="2897.9751" gradientTransform="matrix(1 0 0.1276 0.9753 -106.1361 20.5098)">
								<stop  offset="0" style="stop-color:#444B8C"/>
								<stop  offset="0.9964" style="stop-color:#3E4177"/>
							</linearGradient>
							<path style="fill:url(#SVGID_00000148631994578036887320000009909328167552069546_);" d="M1398.05,2624.766
								c0.485,3.797-2.262,7.098-6.14,7.374l-47.12,3.352c-3.93,0.28-7.514-2.597-8.003-6.424l-2.229-17.477
								c-0.488-3.827,2.306-7.144,6.238-7.407l47.141-3.157c3.879-0.26,7.414,2.607,7.899,6.404L1398.05,2624.766z"/>
						</g>
						<g>
							
								<linearGradient id="SVGID_00000092438026332396166990000015872007986097461180_" gradientUnits="userSpaceOnUse" x1="1214.7494" y1="2558.8179" x2="664.3333" y2="2865.0095" gradientTransform="matrix(1 0 0.1276 0.9753 -106.1361 20.5098)">
								<stop  offset="0" style="stop-color:#444B8C"/>
								<stop  offset="0.9964" style="stop-color:#3E4177"/>
							</linearGradient>
							<path style="fill:url(#SVGID_00000092438026332396166990000015872007986097461180_);" d="M1166.862,2698.977
								c0.498,3.918-2.437,7.356-6.56,7.681l-50.121,3.939c-4.181,0.328-7.981-2.608-8.483-6.559l-2.292-18.039
								c-0.502-3.95,2.485-7.406,6.668-7.717l50.143-3.732c4.125-0.307,7.87,2.62,8.369,6.538L1166.862,2698.977z"/>
							
								<linearGradient id="SVGID_00000013877193930380767120000006619364430067988112_" gradientUnits="userSpaceOnUse" x1="1227.8483" y1="2591.5132" x2="688.0647" y2="2891.79" gradientTransform="matrix(1 0 0.1276 0.9753 -106.1361 20.5098)">
								<stop  offset="0" style="stop-color:#444B8C"/>
								<stop  offset="0.9964" style="stop-color:#3E4177"/>
							</linearGradient>
							<path style="fill:url(#SVGID_00000013877193930380767120000006619364430067988112_);" d="M1248.871,2692.607
								c0.494,3.876-2.375,7.276-6.412,7.593l-49.064,3.856c-4.092,0.322-7.817-2.586-8.314-6.495l-2.271-17.847
								c-0.498-3.909,2.422-7.324,6.516-7.629l49.086-3.654c4.038-0.301,7.71,2.598,8.203,6.474L1248.871,2692.607z"/>
							
								<linearGradient id="SVGID_00000153698766222966943320000005566784984832300673_" gradientUnits="userSpaceOnUse" x1="1239.2137" y1="2623.0205" x2="709.3958" y2="2917.7537" gradientTransform="matrix(1 0 0.1276 0.9753 -106.1361 20.5098)">
								<stop  offset="0" style="stop-color:#444B8C"/>
								<stop  offset="0.9964" style="stop-color:#3E4177"/>
							</linearGradient>
							<path style="fill:url(#SVGID_00000153698766222966943320000005566784984832300673_);" d="M1326.472,2686.579
								c0.49,3.837-2.317,7.2-6.273,7.511l-48.074,3.778c-4.01,0.315-7.663-2.565-8.156-6.435l-2.251-17.665
								c-0.493-3.869,2.363-7.247,6.374-7.546l48.096-3.58c3.957-0.294,7.559,2.578,8.048,6.415L1326.472,2686.579z"/>
							
								<linearGradient id="SVGID_00000083082547517902707010000014430439347258622127_" gradientUnits="userSpaceOnUse" x1="1254.0409" y1="2653.1301" x2="734.2318" y2="2942.2952" gradientTransform="matrix(1 0 0.1276 0.9753 -106.1361 20.5098)">
								<stop  offset="0" style="stop-color:#444B8C"/>
								<stop  offset="0.9964" style="stop-color:#3E4177"/>
							</linearGradient>
							<path style="fill:url(#SVGID_00000083082547517902707010000014430439347258622127_);" d="M1405.163,2680.467
								c0.485,3.798-2.259,7.123-6.134,7.427l-47.08,3.7c-3.927,0.309-7.509-2.544-7.997-6.373l-2.23-17.481
								c-0.489-3.828,2.303-7.169,6.232-7.461l47.102-3.506c3.876-0.288,7.408,2.557,7.893,6.354L1405.163,2680.467z"/>
						</g>
						<g>
							
								<linearGradient id="SVGID_00000124155850071735862900000002301426784234305716_" gradientUnits="userSpaceOnUse" x1="1242.0582" y1="2601.3145" x2="689.7781" y2="2908.5432" gradientTransform="matrix(1 0 0.1276 0.9753 -106.1361 20.5098)">
								<stop  offset="0" style="stop-color:#444B8C"/>
								<stop  offset="0.9964" style="stop-color:#3E4177"/>
							</linearGradient>
							<path style="fill:url(#SVGID_00000124155850071735862900000002301426784234305716_);" d="M1174.004,2755.119
								c0.498,3.919-2.434,7.383-6.554,7.736l-50.08,4.302c-4.178,0.359-7.975-2.554-8.477-6.506l-2.293-18.043
								c-0.502-3.951,2.482-7.432,6.662-7.774l50.103-4.094c4.122-0.337,7.864,2.567,8.363,6.486L1174.004,2755.119z"/>
							
								<linearGradient id="SVGID_00000119829018807371691380000009583245883491563144_" gradientUnits="userSpaceOnUse" x1="1254.418" y1="2633.814" x2="712.8113" y2="2935.105" gradientTransform="matrix(1 0 0.1276 0.9753 -106.1361 20.5098)">
								<stop  offset="0" style="stop-color:#444B8C"/>
								<stop  offset="0.9964" style="stop-color:#3E4177"/>
							</linearGradient>
							<path style="fill:url(#SVGID_00000119829018807371691380000009583245883491563144_);" d="M1255.947,2748.156
								c0.494,3.877-2.372,7.301-6.406,7.648l-49.024,4.211c-4.089,0.352-7.811-2.533-8.309-6.443l-2.272-17.851
								c-0.497-3.909,2.419-7.35,6.51-7.684l49.046-4.008c4.035-0.33,7.704,2.546,8.198,6.423L1255.947,2748.156z"/>
							
								<linearGradient id="SVGID_00000103984181740181663910000005021195291090086829_" gradientUnits="userSpaceOnUse" x1="1265.0853" y1="2665.135" x2="733.482" y2="2960.8613" gradientTransform="matrix(1 0 0.1276 0.9753 -106.1361 20.5098)">
								<stop  offset="0" style="stop-color:#444B8C"/>
								<stop  offset="0.9964" style="stop-color:#3E4177"/>
							</linearGradient>
							<path style="fill:url(#SVGID_00000103984181740181663910000005021195291090086829_);" d="M1333.485,2741.567
								c0.49,3.838-2.314,7.225-6.267,7.564l-48.035,4.126c-4.007,0.344-7.657-2.514-8.15-6.384l-2.251-17.669
								c-0.493-3.869,2.36-7.272,6.368-7.6l48.057-3.927c3.954-0.323,7.553,2.526,8.043,6.364L1333.485,2741.567z"/>
							
								<linearGradient id="SVGID_00000054233871229590864710000018089721293842460036_" gradientUnits="userSpaceOnUse" x1="1279.2212" y1="2695.0466" x2="757.666" y2="2985.1831" gradientTransform="matrix(1 0 0.1276 0.9753 -106.1361 20.5098)">
								<stop  offset="0" style="stop-color:#444B8C"/>
								<stop  offset="0.9964" style="stop-color:#3E4177"/>
							</linearGradient>
							<path style="fill:url(#SVGID_00000054233871229590864710000018089721293842460036_);" d="M1412.113,2734.885
								c0.485,3.799-2.257,7.147-6.128,7.48l-47.042,4.041c-3.923,0.337-7.503-2.494-7.992-6.323l-2.23-17.484
								c-0.488-3.829,2.301-7.193,6.226-7.514l47.064-3.846c3.873-0.316,7.402,2.506,7.887,6.304L1412.113,2734.885z"/>
						</g>
						
							<linearGradient id="SVGID_00000026872664848200944020000015508529579012388541_" gradientUnits="userSpaceOnUse" x1="1269.5222" y1="2642.364" x2="715.4189" y2="2950.6067" gradientTransform="matrix(1 0 0.1276 0.9753 -106.1361 20.5098)">
							<stop  offset="0" style="stop-color:#444B8C"/>
							<stop  offset="0.9964" style="stop-color:#3E4177"/>
						</linearGradient>
						<path style="fill:url(#SVGID_00000026872664848200944020000015508529579012388541_);" d="M1180.978,2809.937
							c0.499,3.92-2.431,7.408-6.548,7.791l-50.041,4.657c-4.175,0.388-7.969-2.501-8.471-6.453l-2.294-18.048
							c-0.502-3.952,2.479-7.458,6.656-7.829l50.064-4.449c4.118-0.366,7.858,2.515,8.357,6.435L1180.978,2809.937z"/>
						
							<linearGradient id="SVGID_00000153691344329027793700000008274188758068872111_" gradientUnits="userSpaceOnUse" x1="1281.142" y1="2674.6824" x2="737.7549" y2="2976.9636" gradientTransform="matrix(1 0 0.1276 0.9753 -106.1361 20.5098)">
							<stop  offset="0" style="stop-color:#444B8C"/>
							<stop  offset="0.9964" style="stop-color:#3E4177"/>
						</linearGradient>
						<path style="fill:url(#SVGID_00000153691344329027793700000008274188758068872111_);" d="M1262.856,2802.394
							c0.494,3.878-2.37,7.326-6.4,7.701l-48.985,4.558c-4.086,0.38-7.805-2.481-8.303-6.392l-2.272-17.855
							c-0.498-3.91,2.416-7.375,6.504-7.738l49.008-4.355c4.032-0.359,7.698,2.495,8.192,6.373L1262.856,2802.394z"/>
						
							<linearGradient id="SVGID_00000136380560618999847650000008298033567533883298_" gradientUnits="userSpaceOnUse" x1="1291.1133" y1="2705.8293" x2="757.7674" y2="3002.5251" gradientTransform="matrix(1 0 0.1276 0.9753 -106.1361 20.5098)">
							<stop  offset="0" style="stop-color:#444B8C"/>
							<stop  offset="0.9964" style="stop-color:#3E4177"/>
						</linearGradient>
						<path style="fill:url(#SVGID_00000136380560618999847650000008298033567533883298_);" d="M1340.333,2795.256
							c0.49,3.839-2.312,7.249-6.261,7.617l-47.997,4.466c-4.003,0.373-7.651-2.463-8.145-6.334l-2.252-17.673
							c-0.493-3.87,2.357-7.297,6.362-7.653l48.019-4.267c3.951-0.351,7.548,2.476,8.038,6.315L1340.333,2795.256z"/>
						
							<linearGradient id="SVGID_00000036931254755336660550000017523261503677336234_" gradientUnits="userSpaceOnUse" x1="1297.2428" y1="2687.4065" x2="741.1851" y2="2996.7363" gradientTransform="matrix(1 0 0.1276 0.9753 -106.1361 20.5098)">
							<stop  offset="0" style="stop-color:#444B8C"/>
							<stop  offset="0.9964" style="stop-color:#3E4177"/>
						</linearGradient>
						<path style="fill:url(#SVGID_00000036931254755336660550000017523261503677336234_);" d="M1188.464,2868.78
							c0.499,3.921-2.428,7.435-6.542,7.849l-49.998,5.037c-4.171,0.42-7.963-2.444-8.465-6.398l-2.294-18.052
							c-0.503-3.954,2.477-7.485,6.649-7.888l50.021-4.829c4.115-0.397,7.852,2.459,8.351,6.379L1188.464,2868.78z"/>
						
							<linearGradient id="SVGID_00000103239590643776259770000003933159969314113409_" gradientUnits="userSpaceOnUse" x1="1308.1041" y1="2719.5098" x2="762.8033" y2="3022.8557" gradientTransform="matrix(1 0 0.1276 0.9753 -106.1361 20.5098)">
							<stop  offset="0" style="stop-color:#444B8C"/>
							<stop  offset="0.9964" style="stop-color:#3E4177"/>
						</linearGradient>
						<path style="fill:url(#SVGID_00000103239590643776259770000003933159969314113409_);" d="M1270.272,2860.614
							c0.494,3.879-2.366,7.353-6.393,7.759l-48.943,4.93c-4.083,0.411-7.799-2.426-8.297-6.337l-2.273-17.859
							c-0.498-3.911,2.413-7.402,6.498-7.796l48.966-4.727c4.029-0.389,7.692,2.44,8.186,6.319L1270.272,2860.614z"/>
						
							<linearGradient id="SVGID_00000096022276479974296540000000889370157472361645_" gradientUnits="userSpaceOnUse" x1="1317.3585" y1="2750.4534" x2="782.1403" y2="3048.1904" gradientTransform="matrix(1 0 0.1276 0.9753 -106.1361 20.5098)">
							<stop  offset="0" style="stop-color:#444B8C"/>
							<stop  offset="0.9964" style="stop-color:#3E4177"/>
						</linearGradient>
						<path style="fill:url(#SVGID_00000096022276479974296540000000889370157472361645_);" d="M1347.684,2852.888
							c0.49,3.84-2.309,7.275-6.255,7.672l-47.956,4.831c-4,0.403-7.646-2.408-8.139-6.28l-2.252-17.677
							c-0.493-3.871,2.354-7.323,6.356-7.709l47.978-4.632c3.948-0.381,7.542,2.423,8.032,6.263L1347.684,2852.888z"/>
						
							<linearGradient id="SVGID_00000057108571954157175030000008892696208625876896_" gradientUnits="userSpaceOnUse" x1="1315.8746" y1="2758.4036" x2="795.0641" y2="3048.1257" gradientTransform="matrix(1 0 0.1276 0.9753 -106.1361 20.5098)">
							<stop  offset="0" style="stop-color:#444B8C"/>
							<stop  offset="0.9964" style="stop-color:#3E4177"/>
						</linearGradient>
						<path style="fill:url(#SVGID_00000057108571954157175030000008892696208625876896_);" d="M1408.563,2764.436l-47.03,4.18
							c-3.922,0.348-6.334,4.769-5.845,8.599l1.257,9.851l1.05,8.226l4.74,37.158l1.395,10.936l0.911,7.145
							c0.489,3.831,3.902,7.258,7.819,6.864l46.968-4.731c3.865-0.389,6.759-4.422,6.274-8.221l-0.905-7.088l-1.385-10.847
							l-4.707-36.858l-1.042-8.16l-1.248-9.771C1416.331,2767.918,1412.433,2764.093,1408.563,2764.436z"/>
					</g>
					<g>
						<g>
							
								<linearGradient id="SVGID_00000157282065669504012300000007493721155988697247_" gradientUnits="userSpaceOnUse" x1="968.4268" y1="2546.689" x2="891.6826" y2="2682.1902" gradientTransform="matrix(1 0 0.1276 0.9753 -106.1361 20.5098)">
								<stop  offset="0" style="stop-color:#AA80F9"/>
								<stop  offset="0.9964" style="stop-color:#6165D7"/>
							</linearGradient>
							<path style="fill:url(#SVGID_00000157282065669504012300000007493721155988697247_);" d="M1162.362,2641.314
								c0.498,3.916-2.438,7.327-6.561,7.621l-50.125,3.565c-4.182,0.297-7.981-2.662-8.483-6.611l-2.291-18.028
								c-0.502-3.948,2.486-7.376,6.669-7.656l50.148-3.359c4.126-0.276,7.871,2.674,8.369,6.59L1162.362,2641.314z"/>
							
								<linearGradient id="SVGID_00000002368369067236280160000002237189414756869813_" gradientUnits="userSpaceOnUse" x1="1027.0719" y1="2579.9043" x2="950.328" y2="2715.4053" gradientTransform="matrix(1 0 0.1276 0.9753 -106.1361 20.5098)">
								<stop  offset="0" style="stop-color:#AA80F9"/>
								<stop  offset="0.9964" style="stop-color:#6165D7"/>
							</linearGradient>
							<path style="fill:url(#SVGID_00000002368369067236280160000002237189414756869813_);" d="M1241.629,2635.749
								c0.494,3.875-2.378,7.25-6.418,7.538l-49.104,3.493c-4.096,0.292-7.823-2.64-8.32-6.548l-2.271-17.843
								c-0.497-3.907,2.425-7.298,6.523-7.572l49.126-3.29c4.042-0.271,7.716,2.652,8.209,6.527L1241.629,2635.749z"/>
							
								<linearGradient id="SVGID_00000137850577028211627370000014074539384891599805_" gradientUnits="userSpaceOnUse" x1="1086.5228" y1="2613.5762" x2="1009.7787" y2="2749.0774" gradientTransform="matrix(1 0 0.1276 0.9753 -106.1361 20.5098)">
								<stop  offset="0" style="stop-color:#AA80F9"/>
								<stop  offset="0.9964" style="stop-color:#6165D7"/>
							</linearGradient>
							<path style="fill:url(#SVGID_00000137850577028211627370000014074539384891599805_);" d="M1321.991,2630.106
								c0.489,3.835-2.318,7.172-6.274,7.453l-48.079,3.42c-4.01,0.285-7.664-2.618-8.156-6.485l-2.25-17.654
								c-0.493-3.867,2.364-7.219,6.375-7.488l48.102-3.221c3.958-0.265,7.56,2.629,8.049,6.464L1321.991,2630.106z"/>
							
								<linearGradient id="SVGID_00000090281015028360932610000008154423337963908539_" gradientUnits="userSpaceOnUse" x1="1144.7394" y1="2646.5488" x2="1067.9952" y2="2782.05" gradientTransform="matrix(1 0 0.1276 0.9753 -106.1361 20.5098)">
								<stop  offset="0" style="stop-color:#AA80F9"/>
								<stop  offset="0.9964" style="stop-color:#6165D7"/>
							</linearGradient>
							<path style="fill:url(#SVGID_00000090281015028360932610000008154423337963908539_);" d="M1400.691,2624.581
								c0.485,3.795-2.26,7.095-6.135,7.371l-47.086,3.349c-3.927,0.279-7.51-2.596-7.998-6.422l-2.229-17.47
								c-0.488-3.826,2.304-7.141,6.233-7.404l47.108-3.155c3.876-0.26,7.409,2.607,7.893,6.402L1400.691,2624.581z"/>
						</g>
						<g>
							
								<linearGradient id="SVGID_00000115489591390111309530000002366005258387452606_" gradientUnits="userSpaceOnUse" x1="993.6285" y1="2560.9629" x2="916.8843" y2="2696.4644" gradientTransform="matrix(1 0 0.1276 0.9753 -106.1361 20.5098)">
								<stop  offset="0" style="stop-color:#AA80F9"/>
								<stop  offset="0.9964" style="stop-color:#6165D7"/>
							</linearGradient>
							<path style="fill:url(#SVGID_00000115489591390111309530000002366005258387452606_);" d="M1169.671,2698.759
								c0.498,3.917-2.435,7.354-6.555,7.678l-50.084,3.936c-4.178,0.328-7.975-2.607-8.477-6.556l-2.292-18.032
								c-0.502-3.949,2.483-7.403,6.663-7.714l50.107-3.729c4.122-0.307,7.865,2.619,8.363,6.536L1169.671,2698.759z"/>
							
								<linearGradient id="SVGID_00000139999820090633539790000007561660830780373381_" gradientUnits="userSpaceOnUse" x1="1052.0222" y1="2594.0359" x2="975.2782" y2="2729.5371" gradientTransform="matrix(1 0 0.1276 0.9753 -106.1361 20.5098)">
								<stop  offset="0" style="stop-color:#AA80F9"/>
								<stop  offset="0.9964" style="stop-color:#6165D7"/>
							</linearGradient>
							<path style="fill:url(#SVGID_00000139999820090633539790000007561660830780373381_);" d="M1248.871,2692.607
								c0.494,3.876-2.375,7.276-6.412,7.593l-49.064,3.856c-4.092,0.322-7.817-2.586-8.314-6.495l-2.271-17.847
								c-0.498-3.909,2.422-7.324,6.516-7.629l49.086-3.654c4.038-0.301,7.71,2.598,8.203,6.474L1248.871,2692.607z"/>
							
								<linearGradient id="SVGID_00000129927981955097105860000014932609475195467917_" gradientUnits="userSpaceOnUse" x1="1111.218" y1="2627.5635" x2="1034.4738" y2="2763.0649" gradientTransform="matrix(1 0 0.1276 0.9753 -106.1361 20.5098)">
								<stop  offset="0" style="stop-color:#AA80F9"/>
								<stop  offset="0.9964" style="stop-color:#6165D7"/>
							</linearGradient>
							<path style="fill:url(#SVGID_00000129927981955097105860000014932609475195467917_);" d="M1329.167,2686.37
								c0.49,3.836-2.315,7.197-6.268,7.508l-48.039,3.776c-4.007,0.315-7.658-2.565-8.151-6.432l-2.25-17.659
								c-0.493-3.867,2.361-7.244,6.37-7.543l48.062-3.577c3.955-0.294,7.554,2.577,8.043,6.412L1329.167,2686.37z"/>
							
								<linearGradient id="SVGID_00000013886825461838594650000010489559922433019582_" gradientUnits="userSpaceOnUse" x1="1169.1849" y1="2660.3948" x2="1092.4408" y2="2795.896" gradientTransform="matrix(1 0 0.1276 0.9753 -106.1361 20.5098)">
								<stop  offset="0" style="stop-color:#AA80F9"/>
								<stop  offset="0.9964" style="stop-color:#6165D7"/>
							</linearGradient>
							<path style="fill:url(#SVGID_00000013886825461838594650000010489559922433019582_);" d="M1407.802,2680.262
								c0.485,3.797-2.257,7.121-6.129,7.425l-47.047,3.698c-3.924,0.309-7.504-2.544-7.992-6.371l-2.229-17.474
								c-0.488-3.827,2.301-7.166,6.227-7.458l47.069-3.503c3.873-0.288,7.403,2.556,7.888,6.351L1407.802,2680.262z"/>
						</g>
						<g>
							
								<linearGradient id="SVGID_00000123440219662821435850000009675862711702743727_" gradientUnits="userSpaceOnUse" x1="1018.2499" y1="2574.9077" x2="941.5057" y2="2710.4092" gradientTransform="matrix(1 0 0.1276 0.9753 -106.1361 20.5098)">
								<stop  offset="0" style="stop-color:#AA80F9"/>
								<stop  offset="0.9964" style="stop-color:#6165D7"/>
							</linearGradient>
							<path style="fill:url(#SVGID_00000123440219662821435850000009675862711702743727_);" d="M1176.811,2754.881
								c0.498,3.917-2.432,7.38-6.549,7.733l-50.044,4.299c-4.175,0.359-7.969-2.552-8.471-6.503l-2.292-18.037
								c-0.502-3.95,2.48-7.429,6.657-7.77l50.067-4.092c4.119-0.337,7.859,2.566,8.357,6.483L1176.811,2754.881z"/>
							
								<linearGradient id="SVGID_00000052819211184008423730000000314858141047625135_" gradientUnits="userSpaceOnUse" x1="1076.3978" y1="2607.842" x2="999.6536" y2="2743.3435" gradientTransform="matrix(1 0 0.1276 0.9753 -106.1361 20.5098)">
								<stop  offset="0" style="stop-color:#AA80F9"/>
								<stop  offset="0.9964" style="stop-color:#6165D7"/>
							</linearGradient>
							<path style="fill:url(#SVGID_00000052819211184008423730000000314858141047625135_);" d="M1255.947,2748.156
								c0.494,3.877-2.372,7.301-6.406,7.648l-49.024,4.211c-4.089,0.352-7.811-2.533-8.309-6.443l-2.272-17.851
								c-0.497-3.909,2.419-7.35,6.51-7.684l49.046-4.008c4.035-0.33,7.704,2.546,8.198,6.423L1255.947,2748.156z"/>
							
								<linearGradient id="SVGID_00000031175035325092410800000011815849833321016757_" gradientUnits="userSpaceOnUse" x1="1135.345" y1="2641.228" x2="1058.6006" y2="2776.7297" gradientTransform="matrix(1 0 0.1276 0.9753 -106.1361 20.5098)">
								<stop  offset="0" style="stop-color:#AA80F9"/>
								<stop  offset="0.9964" style="stop-color:#6165D7"/>
							</linearGradient>
							<path style="fill:url(#SVGID_00000031175035325092410800000011815849833321016757_);" d="M1336.178,2741.338
								c0.49,3.837-2.313,7.222-6.262,7.562l-48.001,4.124c-4.004,0.344-7.652-2.513-8.145-6.382l-2.25-17.662
								c-0.493-3.868,2.358-7.27,6.363-7.597l48.023-3.925c3.952-0.323,7.548,2.526,8.038,6.362L1336.178,2741.338z"/>
							
								<linearGradient id="SVGID_00000012474382282908043600000002035524552949959095_" gradientUnits="userSpaceOnUse" x1="1193.0674" y1="2673.9214" x2="1116.3234" y2="2809.4226" gradientTransform="matrix(1 0 0.1276 0.9753 -106.1361 20.5098)">
								<stop  offset="0" style="stop-color:#AA80F9"/>
								<stop  offset="0.9964" style="stop-color:#6165D7"/>
							</linearGradient>
							<path style="fill:url(#SVGID_00000012474382282908043600000002035524552949959095_);" d="M1414.749,2734.661
								c0.485,3.797-2.255,7.145-6.123,7.477l-47.009,4.038c-3.921,0.337-7.498-2.493-7.986-6.321l-2.23-17.478
								c-0.489-3.828,2.298-7.191,6.221-7.511l47.031-3.844c3.87-0.316,7.398,2.506,7.882,6.302L1414.749,2734.661z"/>
						</g>
						
							<linearGradient id="SVGID_00000024711707176765506990000005255147336106111626_" gradientUnits="userSpaceOnUse" x1="1042.2896" y1="2588.5254" x2="965.5457" y2="2724.0261" gradientTransform="matrix(1 0 0.1276 0.9753 -106.1361 20.5098)">
							<stop  offset="0" style="stop-color:#AA80F9"/>
							<stop  offset="0.9964" style="stop-color:#6165D7"/>
						</linearGradient>
						<path style="fill:url(#SVGID_00000024711707176765506990000005255147336106111626_);" d="M1183.782,2809.679
							c0.499,3.918-2.429,7.405-6.543,7.788l-50.005,4.653c-4.171,0.388-7.963-2.5-8.465-6.451l-2.293-18.041
							c-0.502-3.951,2.477-7.455,6.651-7.826l50.027-4.446c4.116-0.365,7.853,2.514,8.351,6.432L1183.782,2809.679z"/>
						
							<linearGradient id="SVGID_00000129920980483989125080000005577758158258019968_" gradientUnits="userSpaceOnUse" x1="1100.198" y1="2621.3232" x2="1023.4541" y2="2756.8242" gradientTransform="matrix(1 0 0.1276 0.9753 -106.1361 20.5098)">
							<stop  offset="0" style="stop-color:#AA80F9"/>
							<stop  offset="0.9964" style="stop-color:#6165D7"/>
						</linearGradient>
						<path style="fill:url(#SVGID_00000129920980483989125080000005577758158258019968_);" d="M1262.856,2802.394
							c0.494,3.878-2.37,7.326-6.4,7.701l-48.985,4.558c-4.086,0.38-7.805-2.481-8.303-6.392l-2.272-17.855
							c-0.498-3.91,2.416-7.375,6.504-7.738l49.008-4.355c4.032-0.359,7.698,2.495,8.192,6.373L1262.856,2802.394z"/>
						
							<linearGradient id="SVGID_00000116935225486073867540000014527114508563516076_" gradientUnits="userSpaceOnUse" x1="1158.9019" y1="2654.571" x2="1082.1575" y2="2790.0728" gradientTransform="matrix(1 0 0.1276 0.9753 -106.1361 20.5098)">
							<stop  offset="0" style="stop-color:#AA80F9"/>
							<stop  offset="0.9964" style="stop-color:#6165D7"/>
						</linearGradient>
						<path style="fill:url(#SVGID_00000116935225486073867540000014527114508563516076_);" d="M1343.024,2795.009
							c0.489,3.837-2.31,7.246-6.256,7.614l-47.962,4.463c-4.001,0.372-7.647-2.462-8.14-6.332l-2.251-17.667
							c-0.493-3.869,2.355-7.294,6.358-7.65l47.985-4.264c3.948-0.351,7.543,2.476,8.032,6.313L1343.024,2795.009z"/>
						
							<linearGradient id="SVGID_00000033354836752416449820000008179937688940404395_" gradientUnits="userSpaceOnUse" x1="1068.095" y1="2603.1414" x2="991.3508" y2="2738.6428" gradientTransform="matrix(1 0 0.1276 0.9753 -106.1361 20.5098)">
							<stop  offset="0" style="stop-color:#AA80F9"/>
							<stop  offset="0.9964" style="stop-color:#6165D7"/>
						</linearGradient>
						<path style="fill:url(#SVGID_00000033354836752416449820000008179937688940404395_);" d="M1191.265,2868.5
							c0.499,3.919-2.426,7.432-6.536,7.846l-49.962,5.033c-4.168,0.42-7.957-2.443-8.459-6.396l-2.293-18.045
							c-0.502-3.952,2.474-7.482,6.644-7.885l49.985-4.826c4.112-0.397,7.847,2.458,8.345,6.377L1191.265,2868.5z"/>
						
							<linearGradient id="SVGID_00000131336804399668459250000007467058506604380073_" gradientUnits="userSpaceOnUse" x1="1125.7462" y1="2635.7927" x2="1049.0022" y2="2771.2939" gradientTransform="matrix(1 0 0.1276 0.9753 -106.1361 20.5098)">
							<stop  offset="0" style="stop-color:#AA80F9"/>
							<stop  offset="0.9964" style="stop-color:#6165D7"/>
						</linearGradient>
						<path style="fill:url(#SVGID_00000131336804399668459250000007467058506604380073_);" d="M1270.272,2860.614
							c0.494,3.879-2.366,7.353-6.393,7.759l-48.943,4.93c-4.083,0.411-7.799-2.426-8.297-6.337l-2.273-17.859
							c-0.498-3.911,2.413-7.402,6.498-7.796l48.966-4.727c4.029-0.389,7.692,2.44,8.186,6.319L1270.272,2860.614z"/>
						
							<linearGradient id="SVGID_00000030479867561999694540000012553473477468441773_" gradientUnits="userSpaceOnUse" x1="1184.1885" y1="2668.8933" x2="1107.4443" y2="2804.3945" gradientTransform="matrix(1 0 0.1276 0.9753 -106.1361 20.5098)">
							<stop  offset="0" style="stop-color:#AA80F9"/>
							<stop  offset="0.9964" style="stop-color:#6165D7"/>
						</linearGradient>
						<path style="fill:url(#SVGID_00000030479867561999694540000012553473477468441773_);" d="M1350.371,2852.62
							c0.49,3.839-2.307,7.272-6.25,7.669l-47.922,4.828c-3.997,0.403-7.64-2.408-8.133-6.278l-2.252-17.671
							c-0.493-3.87,2.352-7.32,6.351-7.706l47.944-4.629c3.945-0.381,7.537,2.422,8.026,6.261L1350.371,2852.62z"/>
						
							<linearGradient id="SVGID_00000017491617833569702770000004952017075135497345_" gradientUnits="userSpaceOnUse" x1="1228.89" y1="2694.2102" x2="1152.1458" y2="2829.7117" gradientTransform="matrix(1 0 0.1276 0.9753 -106.1361 20.5098)">
							<stop  offset="0" style="stop-color:#AA80F9"/>
							<stop  offset="0.9964" style="stop-color:#6165D7"/>
						</linearGradient>
						<path style="fill:url(#SVGID_00000017491617833569702770000004952017075135497345_);" d="M1411.299,2764.193l-46.995,4.177
							c-3.919,0.348-6.426,4.775-5.937,8.604l1.256,9.847l1.049,8.224l4.739,37.144l1.395,10.932l0.911,7.143
							c0.489,3.83,3.996,7.246,7.91,6.851l46.933-4.728c3.862-0.389,6.66-4.41,6.175-8.209l-0.905-7.085l-1.385-10.844
							l-4.706-36.845l-1.042-8.157l-1.247-9.767C1418.966,2767.683,1415.166,2763.85,1411.299,2764.193z"/>
					</g>
				</g>
			</g>
			<g style="opacity:0.5;">
				<path style="fill:#F4F7FA;" d="M1751.171,1684.841l-194.699,4.856c-46.593,1.162-79.714,24.201-73.588,51.419l26.142,116.154
					c6.086,27.044,48.745,47.193,94.896,45.052l192.876-8.948c43.979-2.04,74.757-24.812,69.094-50.906l-24.318-112.062
					C1835.876,1704.15,1795.56,1683.733,1751.171,1684.841z"/>
				<path style="fill:#F4F7FA;" d="M2159.198,1674.663l-178.709,4.457c-42.724,1.066-73.083,23.088-67.468,49.152l23.963,111.247
					c5.58,25.905,44.695,45.278,87.031,43.314l177.106-8.216c40.425-1.875,68.724-23.656,63.517-48.688l-22.359-107.487
					C2237.041,1693.261,2199.985,1673.646,2159.198,1674.663z"/>
				<path style="fill:#F4F7FA;" d="M1806.425,1937.373l-192.493,9.806c-46.058,2.346-78.798,26.098-72.743,53.002l25.841,114.817
					c6.016,26.733,48.186,45.681,93.81,42.378l190.701-13.805c43.489-3.148,73.925-26.577,68.325-52.382l-24.048-110.817
					C1890.184,1954.409,1850.318,1935.136,1806.425,1937.373z"/>
				<path style="fill:#F4F7FA;" d="M2209.969,1916.816l-176.768,9.005c-42.255,2.152-72.278,24.829-66.726,50.606l23.699,110.02
					c5.519,25.62,44.204,43.89,86.077,40.859l175.191-12.682c39.993-2.895,67.99-25.28,62.839-50.046l-22.121-106.343
					C2286.978,1933.323,2250.318,1914.76,2209.969,1916.816z"/>
			</g>
			<g style="opacity:0.5;">
				<path style="fill:#F4F7FA;" d="M1847.515,2374.768l-194.699,4.856c-46.593,1.162-79.714,24.2-73.588,51.418l26.142,116.154
					c6.086,27.044,48.745,47.193,94.896,45.052l192.876-8.948c43.979-2.04,74.757-24.812,69.094-50.906l-24.318-112.062
					C1932.22,2394.077,1891.905,2373.66,1847.515,2374.768z"/>
				<path style="fill:#F4F7FA;" d="M2255.543,2364.59l-178.709,4.458c-42.724,1.065-73.082,23.088-67.468,49.152l23.963,111.247
					c5.58,25.905,44.695,45.278,87.031,43.314l177.105-8.216c40.425-1.875,68.724-23.656,63.517-48.688l-22.359-107.487
					C2333.385,2383.188,2296.33,2363.573,2255.543,2364.59z"/>
				<path style="fill:#F4F7FA;" d="M1902.769,2627.3l-192.493,9.806c-46.058,2.346-78.798,26.098-72.743,53.002l25.841,114.817
					c6.016,26.733,48.186,45.681,93.81,42.378l190.701-13.805c43.489-3.148,73.925-26.577,68.325-52.382l-24.048-110.817
					C1986.528,2644.336,1946.662,2625.064,1902.769,2627.3z"/>
				<path style="fill:#F4F7FA;" d="M2306.313,2606.743l-176.768,9.005c-42.255,2.153-72.279,24.83-66.726,50.605l23.699,110.02
					c5.519,25.62,44.204,43.89,86.077,40.859l175.191-12.682c39.993-2.895,67.991-25.28,62.839-50.046l-22.121-106.342
					C2383.322,2623.25,2346.663,2604.687,2306.313,2606.743z"/>
			</g>
		</g>
		<g>
			
				<linearGradient id="SVGID_00000092453313468026502570000000202781074469503107_" gradientUnits="userSpaceOnUse" x1="2457.0352" y1="1537.3273" x2="3036.5588" y2="60.9242">
				<stop  offset="0.0036" style="stop-color:#26264F"/>
				<stop  offset="1" style="stop-color:#444B8C"/>
			</linearGradient>
			<path style="fill:url(#SVGID_00000092453313468026502570000000202781074469503107_);" d="M3104.362,760.033
				c-79.562-112.606-230.655-187.623-360.816-222.848c-151.413-40.975-312.07-7.249-422.27,106.849
				c-65.013,67.308-108.634,145.245-105.119,240.749c2.91,79.111,39.99,147.893,100.162,198.7
				c52.338,44.192,129.124,62.965,166.83,122.755c22.275,35.322,23.461,85.328-10.163,115
				c-27.629,24.379-54.136,15.612-87.138,16.33c-36.362,0.792-63.492,13.136-84.896,43.963
				c-28.324,40.795-25.735,91.143,13.197,124.023c17.692,14.942,70.739,47.218,95.496,34.407
				c101.155,35.686,236.271,33.433,348.278-21.564C3015.053,1392.138,3308.692,1049.232,3104.362,760.033z"/>
			
				<linearGradient id="SVGID_00000140725227671218980320000017102803035007765149_" gradientUnits="userSpaceOnUse" x1="3083.8057" y1="2983.6104" x2="3108.5166" y2="3298.1104" gradientTransform="matrix(1 0 0 1 -626.2627 0)">
				<stop  offset="0.0036" style="stop-color:#26264F"/>
				<stop  offset="1" style="stop-color:#444B8C"/>
			</linearGradient>
			<path style="fill:url(#SVGID_00000140725227671218980320000017102803035007765149_);" d="M2504.474,3140.624
				c0,0-95.576,45.158-97.137,52.366c-1.561,7.208,61.465-2.417,87.194-1.377c25.73,1.04,46.895-6.865,44.567-18.194
				c-2.33-11.331-11.336-39.825-11.336-39.825L2504.474,3140.624z"/>
			
				<linearGradient id="SVGID_00000156558935303588698890000016558600999663516047_" gradientUnits="userSpaceOnUse" x1="3145.7568" y1="3158.8489" x2="3141.2686" y2="2833.4331" gradientTransform="matrix(1 0 0 1 -626.2627 0)">
				<stop  offset="0" style="stop-color:#893976"/>
				<stop  offset="1" style="stop-color:#311944"/>
			</linearGradient>
			<path style="fill:url(#SVGID_00000156558935303588698890000016558600999663516047_);" d="M2500.978,3103.976l5.814,44.734
				c0,0,15.131,5.6,25.295-1.021l4.336-49.064L2500.978,3103.976z"/>
			
				<linearGradient id="SVGID_00000183963003438700758440000011368444684167307704_" gradientUnits="userSpaceOnUse" x1="3532.4236" y1="2946.8853" x2="3557.158" y2="3261.6853" gradientTransform="matrix(1 0 0 1 -626.2627 0)">
				<stop  offset="0.0036" style="stop-color:#26264F"/>
				<stop  offset="1" style="stop-color:#444B8C"/>
			</linearGradient>
			<path style="fill:url(#SVGID_00000183963003438700758440000011368444684167307704_);" d="M2951.082,3105.049l11.117,18.553
				c3.109,5.188,4.035,11.434,2.544,17.347c-3.887,15.429-11.652,45.496-15.037,53.337c-4.611,10.679-66.461,17.023-66.461,17.023
				s-5.516-8.068,7.326-17.814c12.841-9.745,21.096-11.278,25.628-25.66c4.531-14.38,7.555-55.059,7.555-55.059L2951.082,3105.049z"
				/>
			
				<linearGradient id="SVGID_00000001648013534167683060000016691568059642330021_" gradientUnits="userSpaceOnUse" x1="3556.97" y1="3152.9531" x2="3552.4817" y2="2827.5498" gradientTransform="matrix(1 0 0 1 -626.2627 0)">
				<stop  offset="0" style="stop-color:#893976"/>
				<stop  offset="1" style="stop-color:#311944"/>
			</linearGradient>
			<path style="fill:url(#SVGID_00000001648013534167683060000016691568059642330021_);" d="M2904.809,3057.901
				c4.062,3.365,23.926,66.046,23.926,66.046s6.43,8.548,18.645-4.067c12.214-12.615,5.527-5.658,5.527-5.658l-2.29-61.649
				L2904.809,3057.901z"/>
			
				<linearGradient id="SVGID_00000060745864052475880370000012769086413632358069_" gradientUnits="userSpaceOnUse" x1="2444.7717" y1="2631.7717" x2="2676.1782" y2="2631.7717">
				<stop  offset="0.0036" style="stop-color:#26264F"/>
				<stop  offset="1" style="stop-color:#444B8C"/>
			</linearGradient>
			<path style="fill:url(#SVGID_00000060745864052475880370000012769086413632358069_);" d="M2448.392,2205.223
				c-5.043,133.444-5.248,278.424,2.138,433.306c8.315,174.41,25.027,335.608,46.087,481.735c7.829,0.26,16.056,0.303,24.649,0.052
				c5.804-0.168,11.427-0.462,16.861-0.851c10.929-30.301,23.848-70.146,35.416-117.74c12.161-50.045,19.498-94.936,24.726-137.863
				c18.405-151.143-3.164-164.329,11.773-276.342c13.228-99.202,32.041-103.076,54.125-243.922
				c23.962-152.822,6.124-175.75-2.551-184.032C2624.688,2124.307,2537.945,2148.312,2448.392,2205.223z"/>
			
				<linearGradient id="SVGID_00000169542764614777240610000005898336628967837613_" gradientUnits="userSpaceOnUse" x1="2460.7717" y1="2631.7815" x2="2676.1772" y2="2631.7815">
				<stop  offset="0" style="stop-color:#FF9085"/>
				<stop  offset="1" style="stop-color:#FB6FBB"/>
			</linearGradient>
			<path style="opacity:0.3;fill:url(#SVGID_00000169542764614777240610000005898336628967837613_);" d="M2661.615,2159.568
				c-35.221-33.632-115.77-13.271-200.844,38.057c97.871,109.924,108.54,181.234,96.807,227.502
				c-13.26,52.294-53.575,67.355-53.422,124.536c0.19,70.269,61.194,88.883,59.898,163.242
				c-0.859,49.169-27.665,48.659-33.996,109.389c-7.49,71.855,27.531,96.615,16.188,149.78
				c-4.881,22.872-18.809,52.758-58.478,83.546c2.86,21.832,5.793,43.443,8.85,64.647c7.825,0.256,16.053,0.302,24.647,0.049
				c5.804-0.166,11.428-0.459,16.86-0.85c10.929-30.301,23.848-70.145,35.416-117.738c12.161-50.047,19.498-94.938,24.726-137.865
				c18.404-151.142-3.164-164.329,11.773-276.342c13.228-99.202,32.041-103.078,54.125-243.923
				C2688.126,2190.774,2670.29,2167.848,2661.615,2159.568z"/>
			
				<linearGradient id="SVGID_00000096025896757221009710000017899805550497459614_" gradientUnits="userSpaceOnUse" x1="2509.0144" y1="2608.0583" x2="2974.8608" y2="2608.0583">
				<stop  offset="0.0036" style="stop-color:#26264F"/>
				<stop  offset="1" style="stop-color:#444B8C"/>
			</linearGradient>
			<path style="fill:url(#SVGID_00000096025896757221009710000017899805550497459614_);" d="M2509.014,2202.982
				c84.271,128.184,175.165,287.714,256.451,478.666c61.429,144.303,105.982,279.791,138.692,400.539
				c4.427,2.131,14.867,6.38,28.21,4.547c18.198-2.502,29.105-14.578,31.956-17.948c13.313-86.561,11.846-159.871,7.327-212.779
				c-2.894-33.876-8.013-90.289-28.784-159.93c-23.264-78.01-39.26-82.395-69.61-164.927
				c-31.503-85.665-23.873-107.042-54.042-214.246c-12.393-44.039-33.14-109.577-67.373-187.969
				C2670.898,2153.616,2589.956,2178.3,2509.014,2202.982z"/>
			<path style="fill:#FFFFFF;" d="M1753.819,1404.931c0,0-18.007-23.427-29.432-40.834c-11.426-17.408-64.764-66.319-64.764-66.319
				s-4.064,7.761,7.418,20.181c11.481,12.419,35.645,33.703,30.089,42.707c-5.556,9.004-21.196,16.942-9.909,33.945
				c11.287,17.002,30.914,5.391,40.947,19.029c10.034,13.637,20.312,28.514,20.312,28.514L1753.819,1404.931z"/>
			
				<linearGradient id="SVGID_00000169527463391107112090000003845872031143364788_" gradientUnits="userSpaceOnUse" x1="2093.394" y1="1655.6703" x2="2656.3386" y2="2744.3594">
				<stop  offset="0" style="stop-color:#FF9085"/>
				<stop  offset="1" style="stop-color:#FB6FBB"/>
			</linearGradient>
			<path style="fill:url(#SVGID_00000169527463391107112090000003845872031143364788_);" d="M1760.848,1389.644
				c-12.146,19.104-24.291,38.2-36.438,57.303c12.646,38.398,34.44,91.716,72.624,147.971
				c16.843,24.815,69.063,97.612,157.476,156.154c120.354,79.689,339.622,154.037,403.81,69.234
				c57.276-75.669-35.169-243.393-52.194-273.505c-34.456,16.794-91.076,39.069-163.855,44.338
				c-23.852,1.727-85.934,5.66-155.873-16.675C1856.956,1533.13,1785.095,1428.802,1760.848,1389.644z"/>
			
				<linearGradient id="SVGID_00000176742239533719381270000002746370629676162706_" gradientUnits="userSpaceOnUse" x1="2359.0059" y1="1514.3547" x2="2922.248" y2="2603.6191">
				<stop  offset="0" style="stop-color:#FF9085"/>
				<stop  offset="1" style="stop-color:#FB6FBB"/>
			</linearGradient>
			<path style="fill:url(#SVGID_00000176742239533719381270000002746370629676162706_);" d="M2179.823,1636.475
				c5.289,24.711,87.953,11.459,105.014,56.313c9.155,24.069-10.282,39.358-11.097,80.236c-0.912,45.762,22.547,71.75,40.543,107.75
				c26.356,52.728,26.454,104.415,26.65,207.783c0.277,147.145-34.714,176.734-4.845,224.156
				c38.88,61.729,132.243,65.67,157.476,66.74c86.301,3.645,96.539-38.982,190.182-44.073
				c106.947-5.814,122.179,48.234,198.663,25.183c69.869-21.059,93.381-77.078,147.785-65.479
				c34.004,7.247,43.021,33.012,75.104,30.223c32.239-2.804,65.565-32.51,67.836-62.969c2.823-37.86-41.688-85.555-111.445-85.629
				c-27.719,10.117-73.668,21.841-124.77,8.817c-83.729-21.338-127.278-95.354-175.646-177.56
				c-33.462-56.867-94.964-161.393-95.697-298.451c-0.302-56.521,9.973-73.057-4.846-103.265
				c-48.116-98.099-234.79-83.46-250.598-82.043C2282.933,1535.609,2173.435,1606.636,2179.823,1636.475z"/>
			<g>
				
					<linearGradient id="SVGID_00000146465560954510217810000017081401311109366968_" gradientUnits="userSpaceOnUse" x1="2342.5945" y1="1878.0278" x2="2205.8076" y2="2104.7568">
					<stop  offset="0.0036" style="stop-color:#6165D7"/>
					<stop  offset="1" style="stop-color:#AA80F9"/>
				</linearGradient>
				<path style="fill:url(#SVGID_00000146465560954510217810000017081401311109366968_);" d="M2138.118,1759.936l234.474,9.512
					c2.574,0.104,4.83,1.821,5.702,4.34l110.457,318.545c1.584,4.569-3.382,15.999-8.027,15.48l-231.82-32.785
					c-2.357-0.263-4.375-1.877-5.226-4.177l-114.918-297.327C2127.13,1769.116,2133.579,1759.751,2138.118,1759.936z"/>
				
					<linearGradient id="SVGID_00000098919514365343166060000018281665985966593410_" gradientUnits="userSpaceOnUse" x1="2437.8113" y1="1868.5446" x2="2092.7119" y2="2052.2266">
					<stop  offset="0" style="stop-color:#AA80F9"/>
					<stop  offset="0.9964" style="stop-color:#6165D7"/>
				</linearGradient>
				<path style="fill:url(#SVGID_00000098919514365343166060000018281665985966593410_);" d="M2134.48,1767.732l234.473,9.512
					c2.574,0.104,4.83,1.821,5.703,4.34l110.456,318.545c1.584,4.569-1.98,9.285-6.625,8.766l-233.222-26.072
					c-2.358-0.263-4.375-1.876-5.227-4.177l-111.708-301.986C2126.7,1772.252,2129.94,1767.547,2134.48,1767.732z"/>
				
					<linearGradient id="SVGID_00000043440430625959966910000001058805358367289781_" gradientUnits="userSpaceOnUse" x1="2278.2849" y1="1640.7273" x2="2237.4185" y2="1774.4724">
					<stop  offset="0.0036" style="stop-color:#26264F"/>
					<stop  offset="1" style="stop-color:#444B8C"/>
				</linearGradient>
				<path style="fill:url(#SVGID_00000043440430625959966910000001058805358367289781_);" d="M2198.596,1779.596l-9.036-25.395
					c-0.815-2.292,0.816-4.729,3.167-4.729h85.349c1.471,0,2.773,0.99,3.218,2.448l8.582,28.088
					c0.705,2.307-0.994,4.646-3.322,4.572l-84.893-2.694C2200.287,1781.843,2199.074,1780.937,2198.596,1779.596z"/>
				
					<linearGradient id="SVGID_00000137846194691366019390000012764664281700270254_" gradientUnits="userSpaceOnUse" x1="2424.8875" y1="1845.3591" x2="2080.4375" y2="2028.6954">
					<stop  offset="0" style="stop-color:#AA80F9"/>
					<stop  offset="0.9964" style="stop-color:#6165D7"/>
				</linearGradient>
				<path style="opacity:0.3;fill:url(#SVGID_00000137846194691366019390000012764664281700270254_);" d="M2342.932,2031.786
					c-15.23-51.34,9.834-84.773-15.748-124.67c-36.187-56.431-113.926-32.547-138.094-78.08
					c-6.518-12.278-9.636-30.577-0.843-59.125l-53.767-2.177c-4.54-0.184-7.78,4.516-6.149,8.928l111.708,301.987
					c0.851,2.302,2.869,3.91,5.227,4.176l141.742,15.85C2361.762,2075.785,2349.121,2052.653,2342.932,2031.786z"/>
			</g>
			<path style="fill:#FFFFFF;" d="M2514.156,1993.636c0,0-35.431-7.328-49.097-16.267c-13.665-8.946-28.156-23.312-48.303-22.53
				c-20.146,0.789-40.422,11.433-31.114,13.88c9.307,2.441,26.692,21.634,39.973,29.191c13.281,7.557,43.63,8.238,49.282,7.827
				c5.651-0.411,27.962,13.537,27.962,13.537L2514.156,1993.636z"/>
			
				<linearGradient id="SVGID_00000175293797696815945550000017173702709631984771_" gradientUnits="userSpaceOnUse" x1="2356.5986" y1="1509.6997" x2="2922.6057" y2="2604.311">
				<stop  offset="0" style="stop-color:#FF9085"/>
				<stop  offset="1" style="stop-color:#FB6FBB"/>
			</linearGradient>
			<path style="opacity:0.3;fill:url(#SVGID_00000175293797696815945550000017173702709631984771_);" d="M3061.689,2176.71
				c-27.719,10.117-73.668,21.841-124.77,8.817c-83.729-21.338-127.279-95.354-175.646-177.56
				c-33.462-56.867-94.964-161.393-95.697-298.451c-0.302-56.521,9.973-73.057-4.845-103.265c-2.358-4.803-5.137-9.268-8.124-13.547
				c-36.551,25.685-50.725,51.407-54.867,73.993c-10.081,54.971,37.456,99.921,12.719,147.337
				c-23.694,45.415-82.272,32.85-94.486,71.779c-13.176,41.999,51.653,67.33,54.511,132.225
				c3.431,77.882-86.652,116.022-70.864,168.115c13.685,45.15,89.073,41.896,89.034,66.113
				c-0.045,28.791-106.692,75.122-198.056,39.667c-27.689-10.743-48.984-27.094-64.822-42.789
				c-3.411,25.375-2.796,42.76,10.311,63.568c38.88,61.729,132.243,65.67,157.476,66.74c86.301,3.645,96.539-38.982,190.182-44.073
				c106.947-5.814,122.178,48.234,198.663,25.183c69.869-21.059,93.381-77.078,147.785-65.479
				c34.004,7.247,43.021,33.012,75.104,30.223c32.239-2.804,65.565-32.51,67.836-62.969
				C3175.957,2224.48,3131.445,2176.784,3061.689,2176.71z"/>
			
				<linearGradient id="SVGID_00000172442031989760017470000009138264609027324035_" gradientUnits="userSpaceOnUse" x1="2500.5884" y1="1484.1868" x2="3089.9517" y2="2840.4968">
				<stop  offset="0" style="stop-color:#FF9085"/>
				<stop  offset="1" style="stop-color:#FB6FBB"/>
			</linearGradient>
			<path style="fill:url(#SVGID_00000172442031989760017470000009138264609027324035_);" d="M2513.248,1978.372
				c-10.902,20.151-21.804,40.295-32.707,60.446c16.808,8.559,196.509,96.948,326.763,9.444
				c16.106-10.817,58.906-39.571,81.976-95.879c25.427-62.061,11.164-119.762,1.911-157.239
				c-22.904-92.771-87.679-190.089-179.583-229.188c-35.105-14.935-76.784-22.49-115.987-29.596
				c-33.247-6.029-85.499-13.414-86.611-8.183c-0.544,2.553,11.598,5.814,20.029,10.773
				c51.787,30.451-13.964,156.213,46.898,216.526c58.303,57.775,133.97,48.234,146.165,100.594
				c5.67,24.343-6.066,46.242-11.294,55.996C2681.635,1966.5,2603.114,1990.864,2513.248,1978.372z"/>
			<path style="fill:#FFFFFF;" d="M2391.278,1433.759c0,0,21.104,63.779,47.388,73.714c26.284,9.925,67.834,21.325,73.05,25.745
				c5.214,4.409-139.641,53.309-220.862,30.804l0,0c23.143-10.527,29.333-13.893,29.333-13.893
				c6.18-3.364,17.709-9.627,28.523-19.584c7.362-6.773,18.888-19.384,27.561-40.339l-7.591-36.209L2391.278,1433.759z"/>
			<path style="fill:#FFFFFF;" d="M2399.5,1456.185c0,0-10.796,24.942-36.392,21.114c-22.922-3.427-21.755-63.364-6.183-73.569
				c5.192-3.403,15.731-4.698,23.551-1.722c5.5,2.091,21.871,16.029,18.222,36.447c5.052-2.793,10.082-2.355,11.826,0.156
				c2.216,3.183-1.374,8.96-2.186,10.268C2405.52,1453.416,2401.418,1455.409,2399.5,1456.185z"/>
		</g>
		<g>
			
				<linearGradient id="SVGID_00000029027851537838330900000005049057520531314595_" gradientUnits="userSpaceOnUse" x1="1523.8575" y1="2893.125" x2="2360.3584" y2="2893.125">
				<stop  offset="0" style="stop-color:#FFC444"/>
				<stop  offset="0.9964" style="stop-color:#F36F56"/>
			</linearGradient>
			<polygon style="fill:url(#SVGID_00000029027851537838330900000005049057520531314595_);" points="1523.858,2853.895 
				1912.535,2836.996 2360.358,2852.688 1918.57,2949.254 			"/>
			<g>
				
					<linearGradient id="SVGID_00000055690317165453209630000009729028143557154955_" gradientUnits="userSpaceOnUse" x1="1616.4808" y1="3224.7661" x2="1684.6696" y2="3069.6702">
					<stop  offset="0" style="stop-color:#AA80F9"/>
					<stop  offset="0.9964" style="stop-color:#6165D7"/>
				</linearGradient>
				<path style="fill:url(#SVGID_00000055690317165453209630000009729028143557154955_);" d="M1837.021,3228.437l-314.836-84.735
					c-31.707-8.533-56.342-39.949-56.342-70.415v-0.334c0-30.466,24.635-50.906,56.342-45.313l337.677,55.259L1837.021,3228.437z"/>
				<g>
					
						<linearGradient id="SVGID_00000183246479319180868610000013509001710757221769_" gradientUnits="userSpaceOnUse" x1="1794.1331" y1="3135.803" x2="2360.8982" y2="3135.803">
						<stop  offset="0" style="stop-color:#F4F7FA"/>
						<stop  offset="0.9964" style="stop-color:#D8DEE8"/>
					</linearGradient>
					<path style="fill:url(#SVGID_00000183246479319180868610000013509001710757221769_);" d="M2360.898,3164.803l-508.708,56.81
						c-31.862,3.559-58.057-18.661-58.057-49.678v-21.042c0-31.018,26.195-58.247,58.057-60.783l508.708-40.492
						C2338.387,3091.524,2333.194,3130.729,2360.898,3164.803z"/>
					
						<linearGradient id="SVGID_00000047739819406728225670000011419706312809107092_" gradientUnits="userSpaceOnUse" x1="1780.4554" y1="3136.071" x2="2370.8657" y2="3136.071">
						<stop  offset="0" style="stop-color:#AA80F9"/>
						<stop  offset="0.9964" style="stop-color:#6165D7"/>
					</linearGradient>
					<path style="fill:url(#SVGID_00000047739819406728225670000011419706312809107092_);" d="M2365.325,3170.444l-508.873,57.699
						c-41.559,4.712-75.997-24.396-75.997-64.975v-0.446c0-40.579,34.439-76.278,75.997-79.52l508.873-39.689
						c3.062-0.239,5.54,2.311,5.54,5.694s-2.479,6.328-5.54,6.577l-508.873,41.43c-33.433,2.722-61.039,31.485-61.039,64.077v0.444
						c0,32.592,27.605,56.071,61.039,52.395l508.873-55.958c3.062-0.336,5.54,2.134,5.54,5.517S2368.387,3170.097,2365.325,3170.444
						z"/>
				</g>
			</g>
			<g>
				
					<linearGradient id="SVGID_00000021834360614350837640000010237781569041056170_" gradientUnits="userSpaceOnUse" x1="1715.47" y1="2806.5664" x2="1595.9249" y2="3209.2451">
					<stop  offset="0" style="stop-color:#FFC444"/>
					<stop  offset="0.9964" style="stop-color:#F36F56"/>
				</linearGradient>
				<path style="fill:url(#SVGID_00000021834360614350837640000010237781569041056170_);" d="M1850.248,3083.24l-328.062-55.6
					c-31.707-5.593-56.342-47.154-56.342-92.899v-0.503c0-45.744,24.635-82.045,56.342-80.868l348.009,12.927L1850.248,3083.24z"/>
				<g>
					
						<linearGradient id="SVGID_00000038409730798820539070000006859122203577314983_" gradientUnits="userSpaceOnUse" x1="1794.1331" y1="2966.395" x2="2360.8982" y2="2966.395">
						<stop  offset="0" style="stop-color:#F4F7FA"/>
						<stop  offset="0.9964" style="stop-color:#D8DEE8"/>
					</linearGradient>
					<path style="fill:url(#SVGID_00000038409730798820539070000006859122203577314983_);" d="M2360.898,3034.635l-480.197,36.219
						c-47.359,3.573-86.568-31.225-86.568-77.798v-31.594c0-46.573,39.208-85.396,86.568-86.687l480.197-13.091
						C2338.315,2924.478,2333.267,2983.278,2360.898,3034.635z"/>
					
						<linearGradient id="SVGID_00000038377280211085827940000010427592572815858334_" gradientUnits="userSpaceOnUse" x1="1780.4554" y1="2968.1431" x2="2370.8657" y2="2968.1431">
						<stop  offset="0" style="stop-color:#FFC444"/>
						<stop  offset="0.9964" style="stop-color:#F36F56"/>
					</linearGradient>
					<path style="fill:url(#SVGID_00000038377280211085827940000010427592572815858334_);" d="M2365.325,3043.514l-508.873,39.689
						c-41.559,3.241-75.997-43.642-75.997-104.572v-0.67c0-60.93,34.439-111.355,75.997-112.388l508.873-12.647
						c3.062-0.076,5.54,3.981,5.54,9.061c0,5.08-2.479,9.273-5.54,9.365l-508.873,15.261c-33.433,1.003-61.039,41.644-61.039,90.581
						v0.667c0,48.936,27.605,86.738,61.039,84.302l508.873-37.075c3.062-0.223,5.54,3.715,5.54,8.795
						C2370.866,3038.963,2368.387,3043.275,2365.325,3043.514z"/>
				</g>
			</g>
			<path style="opacity:0.5;fill:#FFFFFF;" d="M1748.516,3037.396l-70.125-12.255c-16.375-44.695-15.144-85.751,0-134.823
				l70.125,4.985C1734.143,2946.941,1736.319,2993.714,1748.516,3037.396z"/>
		</g>
	</g>
</g>
</svg>
